<?xml version="1.0" encoding="utf-8"?>
<svg viewBox="0 0 500 500" xmlns="http://www.w3.org/2000/svg">
  <defs>
    <linearGradient id="ef5d85de-35d2-4357-9719-f86a6844cb01" x1="507.94698" y1="790.48086" x2="507.94698" y2="154.92035" gradientUnits="userSpaceOnUse" gradientTransform="matrix(0.69094, 0, 0, 0.69094, -94.140671, -63.443215)">
      <stop offset="0" stop-color="gray" stop-opacity="0.25"/>
      <stop offset="0.5351" stop-color="gray" stop-opacity="0.12"/>
      <stop offset="1" stop-color="gray" stop-opacity="0.1"/>
    </linearGradient>
  </defs>
  <title>healthy_options</title>
  <title>Chef</title>
  <ellipse cx="236.795" cy="475.511" rx="223.864" ry="7.978" fill="#ff718e" opacity="0.1" style=""/>
  <path d="M 177.943 22.648 C 192.204 9.939 214.591 7.348 234.968 8.36 C 298.972 11.541 356.749 42.441 406.724 77.392 C 424.817 90.045 442.629 103.681 454.373 121.105 C 478.28 156.575 471.188 205.713 437.946 234.934 C 426.636 244.876 412.925 252.497 398.849 259.253 C 373.822 271.266 346.818 280.91 318.413 283.654 C 298.156 285.612 277.651 284.02 257.513 281.289 C 201.25 273.659 146.023 256.786 99.736 227.919 C 79.434 215.258 60.298 199.517 51.93 179.035 C 43.562 158.552 48.918 132.597 69.648 120.474 C 78.222 115.459 88.473 113.195 98.509 111.068 C 113.282 107.938 128.291 104.852 141.622 98.489 C 155.392 91.917 171.696 79.207 168.969 64.66 C 166.045 49.051 163.697 35.342 177.943 22.648 Z" fill="#ff718e" opacity="0.1" style=""/>
  <path d="M 325.194 188.425 C 324.219 186.538 319.066 174.811 319.066 174.811 L 310.431 152.437 C 310.431 152.437 304.303 143.002 304.303 141.251 C 304.303 139.499 293.162 132.49 293.162 132.49 C 293.162 132.49 284.109 129.794 283.412 129.524 C 282.717 129.255 271.993 125.708 271.993 125.708 C 271.993 125.708 267.77 120.154 267.168 121.605 L 267.168 121.608 C 267.146 121.572 267.124 121.54 267.101 121.502 C 266.238 119.89 265.693 118.128 265.492 116.31 C 265.469 116.149 265.449 115.978 265.429 115.81 C 271.075 111.983 274.47 105.616 274.499 98.794 C 274.497 97.91 274.438 97.026 274.321 96.149 C 274.398 96.101 274.478 96.059 274.561 96.023 C 274.734 95.947 274.69 95.887 274.563 95.822 C 274.606 95.8 274.65 95.775 274.694 95.757 C 274.924 95.657 274.771 95.581 274.547 95.491 L 274.561 95.484 C 274.875 95.347 274.478 95.256 274.159 95.113 C 274.141 95.019 274.126 94.925 274.107 94.833 C 274.177 94.655 274.221 94.468 274.235 94.277 C 274.263 94.291 274.289 94.306 274.319 94.32 C 274.396 93.972 274.394 93.612 274.313 93.265 C 274.293 93.336 274.269 93.405 274.241 93.472 C 274.281 92.833 273.971 92.221 273.43 91.877 C 273.414 91.863 273.397 91.848 273.38 91.834 L 273.971 85.787 C 282.68 85.375 284.208 70.559 282.221 69.736 C 280.235 68.912 282.221 67.129 282.221 63.562 C 282.221 59.995 275.651 56.017 275.651 56.017 C 275.651 56.017 272.901 57.388 268.623 50.528 C 264.345 43.669 248.608 42.572 247.538 44.355 C 246.469 46.138 239.44 48.471 230.273 51.078 C 221.106 53.684 222.786 64.522 224.314 66.855 C 225.572 68.783 226.31 71.004 226.453 73.303 C 226.453 74.675 229.356 80.436 229.356 80.436 C 228.441 82.433 230.77 93.372 231.461 96.48 C 231.45 96.575 231.439 96.671 231.429 96.767 C 231.423 96.777 231.415 96.784 231.41 96.794 C 231.376 96.844 231.347 96.896 231.32 96.95 C 231.173 97.273 231.124 97.631 231.179 97.982 C 231.129 98.364 231.183 98.753 231.334 99.108 C 231.441 105.033 234.098 110.625 238.625 114.449 C 238.636 114.635 238.647 114.824 238.657 115.017 C 238.785 117.556 238.858 120.559 238.724 123.432 C 238.717 123.579 238.706 123.723 238.698 123.87 C 237.673 124.077 236.808 124.759 236.368 125.708 C 235.504 127.368 230.491 129.929 230.491 129.929 C 230.491 129.929 221.716 130.333 220.881 131.951 C 220.045 133.568 207.372 138.959 207.372 138.959 C 207.372 138.959 200.687 142.868 201.662 147.316 C 202.171 149.64 200.741 153.25 199.259 156.17 C 196.161 154.995 192.933 154.19 189.645 153.773 L 196.745 160.565 C 196.597 160.798 196.509 160.929 196.509 160.929 L 192.47 175.216 C 192.47 175.216 191.077 180.203 189.684 181.416 C 188.292 182.629 190.938 193.681 190.938 193.681 C 190.938 193.681 189.406 201.499 188.153 203.52 C 186.899 205.542 190.102 210.529 190.102 210.529 L 196.509 225.085 L 213.5 229.399 C 213.5 229.399 214.631 229.638 216.461 230.03 C 216.404 230.378 216.345 230.725 216.285 231.07 C 215.466 235.707 214.391 239.971 213.082 241.125 C 209.878 243.955 210.018 256.625 210.018 256.625 L 210.157 274.551 C 210.157 274.551 211.271 296.655 210.714 297.464 C 210.363 297.975 211.068 298.807 212.93 299.555 C 212.876 299.888 212.825 300.225 212.776 300.569 C 212.252 304.235 212.018 308.419 213.221 310.269 C 213.744 311.268 214.03 312.375 214.057 313.503 C 214.057 315.255 216.703 318.894 216.703 318.894 C 216.703 318.894 214.614 333.855 218.095 338.977 C 221.577 344.099 224.502 353.399 222.831 355.556 C 222.831 355.556 219.906 361.89 221.298 364.721 C 222.691 367.551 221.298 369.168 219.488 369.842 C 217.678 370.516 217.833 376.043 217.833 376.043 L 221.159 402.325 C 221.159 402.325 222.97 407.717 221.438 409.604 C 219.906 411.491 219.906 420.925 222.273 424.16 C 224.641 427.395 218.931 433.325 218.931 433.325 C 218.931 433.325 215.45 438.312 221.02 439.93 C 221.02 439.93 222.134 440.199 220.045 442.355 C 217.956 444.512 217.538 447.208 218.931 448.151 C 219.22 448.325 219.522 448.474 219.834 448.6 C 219.782 448.919 219.726 449.25 219.661 449.601 C 219.126 452.416 218.118 456.082 216.285 457.855 C 212.733 461.495 209.667 465.58 207.166 470.008 C 205.255 473.631 204.419 477.022 206.536 478.613 C 211.55 482.386 217.956 483.599 221.716 482.116 C 225.476 480.634 230.769 476.051 230.769 476.051 L 232.022 470.795 C 232.022 470.795 231.187 467.56 235.364 466.347 C 239.543 465.134 243.442 460.821 243.442 460.821 L 243.442 453.834 C 244.454 453.256 245.431 452.619 246.367 451.925 C 246.367 451.925 248.317 445.052 246.367 442.76 C 244.417 440.469 243.721 439.66 246.228 438.177 C 248.735 436.695 249.075 433.46 247.236 430.63 C 245.392 427.799 242.467 423.621 244.974 417.69 C 247.482 411.76 248.4 393.564 248.4 393.564 C 248.4 393.564 247.231 381.164 248.4 378.334 C 249.57 375.504 247.063 369.843 247.063 369.843 C 247.063 369.843 247.899 362.834 249.431 359.599 C 250.963 356.364 252.217 339.247 252.217 339.247 C 252.217 339.247 255.002 331.968 255.002 327.251 C 255.002 322.533 250.685 311.212 257.091 308.247 C 257.091 308.247 259.876 310.673 258.762 320.377 C 258.762 320.377 261.965 331.699 261.965 335.203 C 261.965 338.708 264.333 351.377 264.333 351.377 C 264.333 351.377 264.611 355.421 265.586 356.904 C 266.561 358.386 265.586 362.43 265.586 362.43 C 265.586 362.43 269.207 365.799 268.232 367.956 C 267.258 370.112 268.4 374.975 268.4 374.975 L 267.536 405.155 C 267.536 405.155 265.029 418.095 270.879 425.913 C 270.879 425.913 268.789 437.369 267.536 438.177 C 266.283 438.986 272.132 445.995 272.132 445.995 C 272.132 445.995 270.511 450.536 273.803 450.758 L 273.803 458.26 C 274.946 460.28 276.514 462.027 278.399 463.382 C 281.463 465.539 280.209 472.952 280.209 472.952 C 280.209 472.952 284.109 482.386 294.415 480.365 C 304.721 478.343 306.114 477.399 305.556 474.03 C 305.356 472.8 304.91 470.606 304.27 468.115 C 303.161 463.786 301.462 458.562 299.428 455.985 C 296.225 451.925 293.58 443.434 293.58 443.434 C 293.58 443.434 292.326 440.603 293.58 439.66 C 294.833 438.716 294.275 436.965 294.275 436.965 C 294.275 436.965 295.496 433.46 294.398 431.304 C 293.3 429.147 296.504 424.699 296.504 424.699 L 295.529 403.943 L 296.504 373.751 C 296.504 373.751 292.187 368.764 293.997 365.799 C 295.808 362.834 291.908 358.656 291.908 358.656 C 291.908 358.656 291.49 358.521 292.605 355.151 C 293.271 353.166 293.172 351.002 292.326 349.086 C 292.326 349.086 289.958 340.729 294.137 334.395 C 294.137 334.395 295.947 326.038 296.504 321.725 C 296.889 318.728 299.295 307.53 300.727 300.98 C 300.808 300.609 300.885 300.255 300.96 299.916 C 303.022 300.029 304.581 300.16 304.581 300.16 C 304.581 300.16 301.378 277.921 304.581 273.338 C 307.785 268.756 302.075 233.712 302.075 233.712 C 302.075 233.712 300.71 227.587 299.869 221.338 C 299.821 220.983 299.777 220.627 299.732 220.272 C 302.319 220.064 304.914 220.007 307.506 220.099 C 314.191 220.503 320.737 217.942 320.876 215.381 C 321.015 212.821 324.637 202.712 325.194 200.42 C 325.75 198.129 326.168 190.312 325.194 188.425 Z" fill="url(#ef5d85de-35d2-4357-9719-f86a6844cb01)" style=""/>
  <path d="M 243.93 448.436 L 243.93 460.916 C 243.93 460.916 240.172 465.21 236.147 466.418 C 232.121 467.626 232.925 470.847 232.925 470.847 L 231.718 476.08 C 231.718 476.08 226.619 480.643 222.995 482.119 C 219.372 483.596 213.199 482.388 208.368 478.631 C 206.328 477.047 207.133 473.67 208.975 470.064 C 211.374 465.671 214.327 461.604 217.761 457.965 C 219.527 456.198 220.5 452.548 221.014 449.746 C 221.396 447.647 221.519 446.021 221.519 446.021 Z" fill="#4c495a" style=""/>
  <path d="M 243.93 457.75 L 243.93 460.916 C 243.93 460.916 240.172 465.21 236.147 466.418 C 232.121 467.626 232.925 470.847 232.925 470.847 L 231.718 476.08 C 231.718 476.08 226.619 480.643 222.995 482.119 C 219.372 483.596 213.199 482.388 208.368 478.631 C 206.328 477.047 207.133 473.67 208.975 470.064 C 208.888 473.853 210.01 478.11 215.481 477.96 C 221.384 477.772 227.073 475.703 231.718 472.055 C 231.718 472.055 231.584 463.198 237.757 461.185 C 240.013 460.44 242.107 459.275 243.93 457.75 Z" opacity="0.1" style=""/>
  <path d="M 293.046 480.374 C 283.115 482.388 279.357 472.994 279.357 472.994 C 279.357 472.994 280.565 465.613 277.613 463.466 C 275.787 462.105 274.277 460.366 273.184 458.367 L 273.184 446.021 L 285.262 437.433 L 291.8 443.218 L 292.24 443.605 C 292.24 443.605 294.79 452.06 297.877 456.102 C 299.835 458.667 301.473 463.869 302.541 468.179 C 303.158 470.659 303.588 472.844 303.781 474.068 C 304.318 477.423 302.976 478.362 293.046 480.374 Z" fill="#4c495a" style=""/>
  <path d="M 293.046 480.374 C 283.115 482.388 279.357 472.994 279.357 472.994 C 279.357 472.994 280.565 465.613 277.613 463.466 C 275.787 462.105 274.277 460.366 273.184 458.367 L 273.184 453.584 C 275.1 455.608 278.713 459.526 279.491 461.185 C 280.565 463.466 280.699 471.786 285.664 473.263 C 290.63 474.738 300.292 476.08 301.097 472.323 C 301.431 470.895 301.916 469.506 302.541 468.179 C 303.158 470.659 303.588 472.844 303.781 474.068 C 304.318 477.423 302.976 478.362 293.046 480.374 Z" opacity="0.1" style=""/>
  <path d="M 221.519 446.021 L 243.93 448.436 L 243.93 455.034 C 241.402 456.531 237.779 458.12 235.744 456.488 C 232.738 454.083 223.8 451.029 221.014 449.746 C 221.396 447.647 221.519 446.021 221.519 446.021 Z" opacity="0.1" style=""/>
  <path d="M 292.24 444.679 C 289.153 443.605 283.651 448.302 276.405 451.254 C 275.398 451.729 274.298 451.975 273.184 451.973 L 273.184 446.021 L 285.262 437.433 L 291.8 443.218 C 291.901 443.718 292.048 444.207 292.24 444.679 Z" opacity="0.1" style=""/>
  <path d="M 300.157 296.93 C 300.157 296.93 299.734 298.905 299.127 301.771 C 297.747 308.293 295.429 319.442 295.058 322.427 C 294.521 326.721 292.777 335.042 292.777 335.042 C 288.751 341.348 291.032 349.669 291.032 349.669 C 291.848 351.583 291.943 353.728 291.301 355.708 C 290.227 359.062 290.63 359.197 290.63 359.197 C 290.63 359.197 294.387 363.356 292.643 366.309 C 290.898 369.261 295.058 374.226 295.058 374.226 L 294.119 404.286 L 295.058 424.952 C 295.058 424.952 291.972 429.38 293.029 431.528 C 294.087 433.675 292.911 437.164 292.911 437.164 C 292.911 437.164 293.448 438.908 292.24 439.848 C 291.032 440.787 292.24 443.605 292.24 443.605 C 289.153 442.532 283.651 447.229 276.405 450.181 C 269.158 453.133 271.574 446.155 271.574 446.155 C 271.574 446.155 265.938 439.177 267.146 438.372 C 268.353 437.567 270.366 426.16 270.366 426.16 C 264.73 418.376 267.146 405.494 267.146 405.494 L 267.978 375.445 C 267.978 375.445 266.877 370.603 267.817 368.456 C 268.756 366.309 265.267 362.954 265.267 362.954 C 265.267 362.954 266.206 358.928 265.267 357.452 C 264.327 355.976 264.059 351.95 264.059 351.95 C 264.059 351.95 261.778 339.336 261.778 335.846 C 261.778 332.357 258.691 321.085 258.691 321.085 C 259.765 311.423 257.081 309.008 257.081 309.008 C 250.908 311.96 255.068 323.232 255.068 327.929 C 255.068 332.626 252.384 339.873 252.384 339.873 C 252.384 339.873 251.177 356.915 249.7 360.136 C 248.224 363.356 247.419 370.335 247.419 370.335 C 247.419 370.335 249.834 375.971 248.707 378.789 C 247.58 381.607 248.707 393.953 248.707 393.953 C 248.707 393.953 247.821 412.07 245.406 417.974 C 242.99 423.878 245.809 428.039 247.585 430.857 C 249.357 433.675 249.029 436.896 246.614 438.372 C 244.198 439.848 244.869 440.653 246.748 442.934 C 248.626 445.216 246.748 452.06 246.748 452.06 C 246.748 452.06 239.099 458.099 235.744 455.414 C 232.389 452.731 221.653 449.241 220.312 448.302 C 218.969 447.363 219.372 444.679 221.385 442.532 C 223.398 440.385 222.324 440.116 222.324 440.116 C 216.956 438.506 220.312 433.54 220.312 433.54 C 220.312 433.54 225.814 427.636 223.532 424.415 C 221.251 421.195 221.251 411.801 222.727 409.922 C 224.203 408.043 222.458 402.676 222.458 402.676 L 219.254 376.508 C 219.254 376.508 219.104 371.006 220.848 370.335 C 222.592 369.664 223.935 368.053 222.592 365.235 C 221.251 362.417 224.069 356.11 224.069 356.11 C 225.679 353.963 222.861 344.704 219.506 339.604 C 216.152 334.505 218.164 319.609 218.164 319.609 C 218.164 319.609 215.615 315.985 215.615 314.241 C 215.59 313.121 215.314 312.021 214.81 311.02 C 213.65 309.179 213.876 305.014 214.38 301.364 C 214.868 297.832 215.615 294.783 215.615 294.783 Z" fill="#5f5d7e" style=""/>
  <path d="M 273.855 144.887 L 247.419 151.059 C 247.419 151.059 234.402 140.056 237.622 134.151 C 238.729 132.122 239.217 128.66 239.383 124.999 C 239.512 122.137 239.442 119.148 239.319 116.62 C 239.131 112.964 238.83 110.264 238.83 110.264 C 238.83 110.264 265.938 94.966 264.998 110.264 C 264.808 112.812 264.867 115.372 265.176 117.908 C 265.367 119.712 265.894 121.465 266.727 123.077 C 268.176 125.659 269.964 125.696 269.964 125.696 Z" fill="#fdc2cc" style=""/>
  <path d="M 265.176 117.908 C 257.308 123.551 246.587 123.017 239.319 116.62 C 239.131 112.964 238.83 110.264 238.83 110.264 C 238.83 110.264 265.938 94.966 264.998 110.264 C 264.808 112.812 264.867 115.372 265.176 117.908 Z" opacity="0.1" style=""/>
  <circle cx="253.055" cy="100.468" r="20.8" fill="#fdc2cc" style=""/>
  <path d="M 273.855 144.887 L 247.419 151.059 C 247.419 151.059 234.402 140.056 237.622 134.151 C 238.729 132.122 239.217 128.66 239.383 124.999 C 239.967 128.182 241.676 131.049 244.198 133.077 C 250.237 137.103 249.297 142.068 249.297 142.068 L 260.167 141.666 C 259.496 137.237 263.522 134.822 264.864 134.285 C 266.206 133.748 265.535 131.332 265.535 131.332 L 266.727 123.077 C 268.176 125.659 269.964 125.696 269.964 125.696 Z" opacity="0.1" style=""/>
  <path d="M 300.157 296.93 C 300.157 296.93 299.734 298.905 299.127 301.771 C 296.207 301.616 292.348 301.503 290.63 301.895 C 287.678 302.566 275.868 302.834 275.868 302.834 L 246.614 303.87 L 246.614 302.969 C 243.249 302.996 239.888 303.22 236.549 303.64 C 231.584 304.311 223.8 303.371 218.835 302.566 C 217.307 302.347 215.811 301.943 214.38 301.364 C 214.868 297.832 215.615 294.783 215.615 294.783 Z" opacity="0.1" style=""/>
  <path d="M 297.877 211.716 C 297.452 214.222 297.764 218.377 298.3 222.478 C 299.111 228.7 300.426 234.797 300.426 234.797 C 300.426 234.797 305.928 269.688 302.842 274.251 C 299.755 278.814 302.842 300.955 302.842 300.955 C 302.842 300.955 293.582 300.15 290.63 300.821 C 287.678 301.492 275.868 301.761 275.868 301.761 L 246.614 302.797 L 246.614 301.895 C 243.249 301.922 239.888 302.146 236.549 302.566 C 231.584 303.237 223.8 302.298 218.835 301.492 C 213.87 300.687 211.857 299.077 212.394 298.272 C 212.93 297.467 211.857 275.458 211.857 275.458 L 211.723 257.611 C 211.723 257.611 211.589 244.996 214.675 242.178 C 215.937 241.03 216.972 236.784 217.761 232.167 C 218.895 225.484 219.506 218.023 219.506 218.023 L 199.109 163.405 L 198.706 162.332 C 198.706 162.332 204.611 153.207 203.671 148.778 C 202.732 144.35 209.173 140.458 209.173 140.458 C 209.173 140.458 221.385 135.091 222.19 133.48 C 222.995 131.869 231.45 131.467 231.45 131.467 C 231.45 131.467 236.281 128.917 237.113 127.264 C 237.524 126.327 238.361 125.645 239.362 125.434 C 239.93 128.656 241.649 131.563 244.198 133.614 C 250.237 137.64 249.297 142.605 249.297 142.605 L 260.167 142.202 C 259.496 137.774 263.522 135.359 264.864 134.822 C 266.206 134.285 265.535 131.869 265.535 131.869 L 266.791 123.179 C 267.371 121.735 271.44 127.264 271.44 127.264 C 271.44 127.264 281.773 130.796 282.444 131.064 C 283.115 131.332 291.838 134.017 291.838 134.017 C 291.838 134.017 302.573 140.995 302.573 142.739 C 302.573 144.484 308.478 153.878 308.478 153.878 C 308.478 153.878 308.408 154.254 308.279 154.941 C 306.915 162.337 298.858 205.946 297.877 211.716 Z" fill="#ff718e" style=""/>
  <path d="M 254.934 189.976 C 254.934 189.976 231.718 183.803 229.437 182.327 C 227.155 180.851 213.736 189.439 230.108 201.115 C 230.108 201.115 250.127 205.274 255.483 201.115 C 260.839 196.954 254.934 189.976 254.934 189.976 Z" fill="#fdc2cc" style=""/>
  <path d="M 305.123 153.207 L 307.941 153.341 L 316.261 175.618 C 316.261 175.618 321.226 187.292 322.166 189.171 C 323.105 191.05 322.703 198.833 322.166 201.115 C 321.629 203.395 318.14 213.46 318.006 216.01 C 317.872 218.559 311.564 221.11 305.123 220.707 C 298.682 220.304 283.651 222.317 283.651 222.317 C 283.651 222.317 267.6 220.639 257.752 225.672 C 257.752 225.672 251.445 212.655 252.116 188.366 C 252.116 188.366 263.254 187.694 266.072 188.768 C 268.89 189.842 282.578 192.928 284.322 191.318 C 286.067 189.708 293.985 194.27 293.985 194.27 C 294.8 192.48 294.8 190.424 293.985 188.634 C 292.643 185.414 290.361 175.349 293.314 172.128 C 296.266 168.907 305.123 153.207 305.123 153.207 Z" opacity="0.1" style=""/>
  <path d="M 298.3 222.478 C 291.639 222.929 284.188 223.927 284.188 223.927 C 284.188 223.927 268.139 222.248 258.288 227.283 C 258.288 227.283 251.982 214.265 252.652 189.976 C 252.652 189.976 263.79 189.305 266.609 190.379 C 269.427 191.453 283.115 194.539 284.859 192.928 C 286.604 191.318 294.521 195.881 294.521 195.881 C 295.337 194.091 295.337 192.035 294.521 190.245 C 293.18 187.024 290.898 176.959 293.85 173.738 C 296.803 170.518 305.659 154.817 305.659 154.817 L 308.279 154.941 C 306.915 162.337 298.858 205.946 297.877 211.716 C 297.452 214.222 297.764 218.377 298.3 222.478 Z" opacity="0.1" style=""/>
  <path d="M 305.659 153.743 L 308.478 153.878 L 316.798 176.154 C 316.798 176.154 321.763 187.829 322.703 189.708 C 323.642 191.587 323.239 199.37 322.703 201.651 C 322.166 203.932 318.677 213.997 318.543 216.547 C 318.409 219.096 312.101 221.647 305.659 221.244 C 299.218 220.841 284.188 222.854 284.188 222.854 C 284.188 222.854 268.137 221.176 258.288 226.209 C 258.288 226.209 251.982 213.192 252.652 188.902 C 252.652 188.902 263.79 188.231 266.609 189.305 C 269.427 190.379 283.115 193.465 284.859 191.855 C 286.604 190.245 294.521 194.807 294.521 194.807 C 295.337 193.017 295.337 190.961 294.521 189.171 C 293.18 185.951 290.898 175.886 293.85 172.665 C 296.803 169.444 305.659 153.743 305.659 153.743 Z" fill="#ff718e" style=""/>
  <rect x="380.484" y="234.725" width="3.938" height="35.445" transform="matrix(-0.850213, -0.526439, 0.526439, -0.850213, 480.580444, 604.97583)" fill="#dfe6f5" style=""/>
  <ellipse cx="573.51" cy="333.092" rx="11.342" ry="7.955" transform="matrix(0.526439, -0.850213, 0.850213, 0.526439, -282.996755, 478.95646)" fill="#dfe6f5" style=""/>
  <ellipse cx="573.51" cy="333.092" rx="8.141" ry="5.711" transform="matrix(0.526439, -0.850213, 0.850213, 0.526439, -282.996755, 478.95646)" opacity="0.1" style=""/>
  <rect x="367.422" y="262.515" width="3.938" height="22.055" transform="matrix(-0.850213, -0.526439, 0.526439, -0.850213, 445.307861, 637.130249)" fill="#53526b" style=""/>
  <path d="M 248.09 219.767 L 256.276 217.486 C 256.276 217.486 296.669 218.559 283.115 201.92 C 283.115 201.92 276.003 195.076 261.107 200.578 C 246.211 206.08 242.051 206.751 242.051 206.751 Z" fill="#fdc2cc" style=""/>
  <circle cx="242.051" cy="147.973" r="1.611" opacity="0.1" style=""/>
  <circle cx="269.695" cy="147.033" r="1.611" opacity="0.1" style=""/>
  <circle cx="242.051" cy="147.436" r="1.611" fill="#fff" style=""/>
  <circle cx="244.332" cy="170.25" r="1.611" opacity="0.1" style=""/>
  <circle cx="270.5" cy="168.639" r="1.611" opacity="0.1" style=""/>
  <circle cx="244.332" cy="169.713" r="1.611" fill="#fff" style=""/>
  <circle cx="269.829" cy="246.347" r="1.611" opacity="0.1" style=""/>
  <circle cx="248.636" cy="246.347" r="1.611" opacity="0.1" style=""/>
  <circle cx="269.829" cy="245.811" r="1.611" fill="#fff" style=""/>
  <circle cx="250.246" cy="273.312" r="1.611" opacity="0.1" style=""/>
  <circle cx="270.5" cy="271.701" r="1.611" opacity="0.1" style=""/>
  <circle cx="250.246" cy="272.775" r="1.611" fill="#fff" style=""/>
  <circle cx="248.636" cy="245.811" r="1.611" fill="#fff" style=""/>
  <circle cx="270.5" cy="271.164" r="1.611" fill="#fff" style=""/>
  <circle cx="269.695" cy="146.497" r="1.611" fill="#fff" style=""/>
  <circle cx="270.5" cy="168.102" r="1.611" fill="#fff" style=""/>
  <path d="M 272.916 224.598 C 272.916 224.598 273.184 261.368 273.989 267.944 C 273.989 267.944 274.282 226.332 272.916 224.598 Z" opacity="0.1" style=""/>
  <path d="M 279.76 241.642 C 279.207 241.642 290.764 284.718 291.301 287.805 C 291.838 290.891 282.981 241.642 279.76 241.642 Z" opacity="0.1" style=""/>
  <path d="M 288.885 234.663 C 288.885 235.066 295.326 258.013 298.547 259.221 C 301.768 260.429 288.885 234.663 288.885 234.663 Z" opacity="0.1" style=""/>
  <path d="M 314.248 189.976 C 314.248 189.976 300.56 190.586 300.157 192.563 C 299.755 194.539 314.248 189.976 314.248 189.976 Z" opacity="0.1" style=""/>
  <path d="M 290.093 364.967 C 290.093 364.967 280.297 369.127 281.773 369.395 C 283.249 369.664 290.093 364.967 290.093 364.967 Z" opacity="0.1" style=""/>
  <path d="M 269.829 358.794 C 269.448 357.935 276.405 362.283 276.405 362.819 C 276.405 363.356 270.366 360.002 269.829 358.794 Z" opacity="0.1" style=""/>
  <path d="M 278.954 372.884 C 278.954 372.884 286.604 372.498 287.141 375.442 C 287.678 378.386 278.954 372.884 278.954 372.884 Z" opacity="0.1" style=""/>
  <path d="M 223.935 372.868 C 223.935 372.868 232.255 371.241 232.925 372.868 C 233.597 374.495 223.935 372.868 223.935 372.868 Z" opacity="0.1" style=""/>
  <path d="M 227.021 423.476 C 227.021 423.476 227.567 430.32 225.55 431.931 C 223.532 433.54 227.021 423.476 227.021 423.476 Z" opacity="0.1" style=""/>
  <path d="M 226.005 437.969 C 228.631 438.237 242.454 435.822 242.319 437.969 C 242.185 440.116 226.005 437.969 226.005 437.969 Z" opacity="0.1" style=""/>
  <path d="M 289.422 429.649 C 289.422 429.649 284.708 428.924 285.857 432.105 Z" opacity="0.1" style=""/>
  <path d="M 201.792 161.795 L 199.243 161.795 L 195.351 176.02 C 195.351 176.02 194.009 180.985 192.667 182.193 C 191.325 183.4 193.875 194.405 193.875 194.405 C 193.875 194.405 192.399 202.188 191.191 204.201 C 189.984 206.214 193.07 211.179 193.07 211.179 L 199.243 225.672 L 215.615 229.966 C 215.615 229.966 244.466 236.274 245.809 237.213 C 247.151 238.152 248.358 236.811 249.297 228.088 C 250.237 219.365 252.787 202.456 254.8 201.651 C 254.8 201.651 238.696 203.395 237.354 203.127 C 236.013 202.859 229.571 203.261 229.571 203.261 C 229.571 203.261 221.117 202.725 219.775 203.53 C 218.433 204.335 221.519 199.632 221.519 199.632 C 222.084 197.479 222.084 195.216 221.519 193.062 C 220.58 189.439 220.043 148.376 201.792 161.795 Z" opacity="0.1" style=""/>
  <path d="M 254.263 203.261 C 252.25 204.066 249.7 220.975 248.761 229.698 C 247.821 238.421 246.614 239.762 245.272 238.823 C 244.182 238.061 224.949 233.756 217.761 232.167 C 218.895 225.484 219.506 218.023 219.506 218.023 L 199.109 163.405 L 201.256 163.405 C 219.506 149.986 220.043 191.05 220.983 194.673 C 221.547 196.827 221.547 199.089 220.983 201.243 C 220.983 201.243 217.896 205.946 219.238 205.14 C 220.58 204.335 229.034 204.872 229.034 204.872 C 229.034 204.872 235.476 204.469 236.818 204.738 C 238.159 205.006 254.263 203.261 254.263 203.261 Z" opacity="0.1" style=""/>
  <path d="M 201.256 162.332 L 198.706 162.332 L 194.815 176.557 C 194.815 176.557 193.472 181.522 192.13 182.729 C 190.789 183.937 193.338 194.941 193.338 194.941 C 193.338 194.941 191.862 202.725 190.654 204.738 C 189.447 206.751 192.533 211.716 192.533 211.716 L 198.706 226.209 L 215.078 230.503 C 215.078 230.503 243.93 236.811 245.272 237.75 C 246.614 238.689 247.821 237.347 248.761 228.624 C 249.7 219.902 252.25 202.993 254.263 202.188 C 254.263 202.188 238.159 203.932 236.818 203.664 C 235.476 203.395 229.034 203.798 229.034 203.798 C 229.034 203.798 220.58 203.261 219.238 204.067 C 217.896 204.872 220.983 200.169 220.983 200.169 C 221.548 198.016 221.548 195.753 220.983 193.599 C 220.043 189.976 219.506 148.912 201.256 162.332 Z" fill="#ff718e" style=""/>
  <path d="M 209.979 210.911 C 209.979 210.911 202.597 224.867 201.256 223.256 C 199.914 221.647 209.979 210.911 209.979 210.911 Z" opacity="0.1" style=""/>
  <path d="M 202.329 202.964 C 202.329 202.964 195.486 208.629 198.706 210.105 C 201.926 211.582 202.329 202.964 202.329 202.964 Z" opacity="0.1" style=""/>
  <path d="M 208.771 196.015 C 209.308 196.149 218.701 198.015 218.835 198.826 C 218.969 199.638 208.771 196.015 208.771 196.015 Z" opacity="0.1" style=""/>
  <path d="M 273.914 97.709 C 273.314 97.92 272.935 98.514 272.997 99.147 C 272.449 99.631 271.682 99.061 271.236 98.444 C 270.785 97.832 270.275 97.076 269.594 97.161 C 269.27 97.264 268.955 97.396 268.654 97.553 C 267.58 97.897 266.673 96.636 266.072 95.529 C 265.025 93.592 263.978 91.656 262.932 89.721 C 260.833 90.94 258.353 89.663 256.27 88.401 C 254.188 87.139 251.708 85.857 249.603 87.075 C 246.517 88.857 246.404 94.8 243.205 96.265 C 242.174 96.737 240.978 96.636 240.022 97.285 C 239.077 97.929 238.567 99.169 238.143 100.355 C 237.987 101.031 237.618 101.638 237.091 102.089 C 236.757 102.264 236.384 102.354 236.007 102.352 C 235.058 102.513 234.083 102.377 233.216 101.96 C 232.279 101.371 231.877 100.21 232.25 99.169 C 232.275 99.115 232.304 99.064 232.335 99.013 C 232.679 98.598 232.988 98.154 233.259 97.687 C 233.58 96.834 233.119 95.841 233.221 94.918 C 233.388 93.339 235.057 92.507 235.341 90.956 C 235.459 90.349 235.336 89.7 235.449 89.088 C 235.465 89.008 235.486 88.929 235.513 88.852 L 234.531 89.529 C 235.631 88.245 236.184 86.464 236.989 84.907 C 238.796 81.463 241.935 78.908 245.674 77.837 C 249.174 76.817 252.872 77.096 256.404 77.961 C 259.763 78.798 262.981 80.123 265.954 81.895 C 267.016 82.465 267.96 83.232 268.734 84.155 C 269.384 85.112 269.936 86.132 270.383 87.199 C 271.424 89.357 274.269 91.353 272.004 91.654 C 270.119 91.906 271.837 93.226 272.824 94.118 C 273.048 94.293 273.24 94.503 273.394 94.74 C 273.727 95.431 273.683 96.243 273.276 96.893 C 272.894 97.376 274.441 97.472 273.914 97.709 Z" opacity="0.1" style=""/>
  <path d="M 273.914 97.172 C 273.314 97.383 272.935 97.977 272.997 98.61 C 272.449 99.094 271.682 98.525 271.236 97.908 C 270.785 97.295 270.275 96.539 269.594 96.625 C 269.27 96.728 268.955 96.859 268.654 97.016 C 267.58 97.36 266.673 96.099 266.072 94.993 C 265.025 93.055 263.978 91.119 262.932 89.184 C 260.833 90.403 258.353 89.126 256.27 87.864 C 254.188 86.603 251.708 85.32 249.603 86.538 C 246.517 88.321 246.404 94.263 243.205 95.728 C 242.174 96.2 240.978 96.099 240.022 96.748 C 239.077 97.392 238.567 98.632 238.143 99.818 C 237.987 100.494 237.618 101.101 237.091 101.552 C 236.757 101.727 236.384 101.818 236.007 101.816 C 235.058 101.977 234.083 101.84 233.216 101.423 C 232.279 100.834 231.877 99.674 232.25 98.632 C 232.275 98.578 232.304 98.527 232.335 98.476 C 232.679 98.061 232.988 97.617 233.259 97.15 C 233.58 96.297 233.119 95.304 233.221 94.381 C 233.388 92.803 235.057 91.97 235.341 90.419 C 235.459 89.813 235.336 89.163 235.449 88.552 C 235.465 88.471 235.486 88.392 235.513 88.315 L 234.531 88.992 C 235.631 87.709 236.184 85.927 236.989 84.37 C 238.796 80.926 241.935 78.371 245.674 77.3 C 249.174 76.28 252.872 76.56 256.404 77.424 C 259.763 78.261 262.981 79.586 265.954 81.358 C 267.016 81.928 267.96 82.695 268.734 83.618 C 269.384 84.575 269.936 85.595 270.383 86.662 C 271.424 88.82 274.269 90.816 272.004 91.117 C 270.119 91.369 271.837 92.69 272.824 93.581 C 273.048 93.756 273.24 93.966 273.394 94.203 C 273.727 94.894 273.683 95.707 273.276 96.356 C 272.894 96.839 274.441 96.936 273.914 97.172 Z" fill="#865a61" style=""/>
  <path d="M 272.824 93.581 L 272.61 95.841 C 272.61 95.841 250.086 67.295 232.566 99.529 C 232.566 99.529 232.481 99.137 232.335 98.476 C 232.68 98.061 232.988 97.617 233.259 97.15 C 233.58 96.297 233.119 95.304 233.221 94.381 C 233.388 92.803 235.057 91.97 235.341 90.419 C 235.459 89.813 235.336 89.163 235.449 88.552 C 235.465 88.471 235.486 88.392 235.513 88.315 L 234.531 88.992 C 235.631 87.709 236.184 85.927 236.99 84.37 C 238.796 80.926 241.935 78.371 245.675 77.3 C 249.174 76.28 252.873 76.56 256.404 77.424 C 259.763 78.261 262.981 79.586 265.954 81.358 C 267.016 81.928 267.96 82.695 268.735 83.618 C 269.384 84.575 269.936 85.595 270.383 86.662 C 271.424 88.82 274.269 90.816 272.004 91.117 C 270.119 91.369 271.837 92.69 272.824 93.581 Z" opacity="0.1" style=""/>
  <g opacity="0.1" transform="matrix(0.69094, 0, 0, 0.69094, 12.931045, 8.16293)" style="">
    <path d="M531.91464,232.03646a1.57413,1.57413,0,0,0-.36957,1.34466c-.79244.69921-1.90343-.12428-2.54821-1.01772-.65256-.88566-1.39056-1.98105-2.37722-1.85677a8.53343,8.53343,0,0,0-1.35955.56716c-1.55378.49717-2.86676-1.32849-3.73687-2.92887q-2.27234-4.20683-4.54476-8.40591c-3.03765,1.76354-6.62686-.08545-9.64118-1.91116s-6.60353-3.68243-9.64886-1.91889c-4.4671,2.57927-4.63031,11.1794-9.26052,13.30029-1.49165.68366-3.22409.536-4.607,1.4761-1.36733.93222-2.10533,2.72683-2.7191,4.44376a4.70691,4.70691,0,0,1-1.52267,2.50933,3.345,3.345,0,0,1-1.56932.38071,6.73257,6.73257,0,0,1-4.03977-.56716,3.63373,3.63373,0,0,1-1.51394-2.13567,3.49314,3.49314,0,0,0,1.51394,3.68944,6.7325,6.7325,0,0,0,4.03977.56716,3.345,3.345,0,0,0,1.56932-.38071,4.70691,4.70691,0,0,0,1.52267-2.50933c.61377-1.71693,1.35177-3.51154,2.7191-4.44376,1.38288-.94005,3.11532-.79244,4.607-1.4761,4.63021-2.12089,4.79342-10.721,9.26052-13.30028,3.04533-1.76355,6.63454.09322,9.64886,1.91888s6.60353,3.6747,9.64118,1.91116q2.27233,4.19516,4.54476,8.40591c.87011,1.60038,2.18309,3.426,3.73687,2.92887a8.53343,8.53343,0,0,1,1.35955-.56716c.98666-.12428,1.72466.97111,2.37722,1.85677.64478.89344,1.75577,1.71694,2.54821,1.01772a2.00239,2.00239,0,0,1,1.32844-2.08205C533.47922,232.581,532.191,232.4359,531.91464,232.03646Z" transform="translate(-154.96538 -103.63591)"/>
    <path d="M529.3743,224.27471a2.81313,2.81313,0,0,1,.73355-.18516c1.44547-.19181,1.45154-.86167.87911-1.81746a2.27194,2.27194,0,0,1-.87911.26369C528.548,222.74465,528.69614,223.4598,529.3743,224.27471Z" transform="translate(-154.96538 -103.63591)"/>
    <path d="M532.3505,230.78222a3.50987,3.50987,0,0,0-.008-1.5192,2.2409,2.2409,0,0,1-.39356.85517C531.70562,230.42664,532.0052,230.62612,532.3505,230.78222Z" transform="translate(-154.96538 -103.63591)"/>
    <path d="M474.0228,228.54431c-.0165.08881-.03528.17654-.045.26872a8.91195,8.91195,0,0,0,.15173,2.08835A7.34919,7.34919,0,0,0,474.0228,228.54431Z" transform="translate(-154.96538 -103.63591)"/>
    <path d="M477.17681,219.06587a11.268,11.268,0,0,1-1.30341,1.94724l1.25391-.86333A8.68832,8.68832,0,0,1,477.17681,219.06587Z" transform="translate(-154.96538 -103.63591)"/>
  </g>
  <path d="M 232.565 98.992 C 232.565 98.992 229.326 84.513 230.357 82.191 C 230.357 82.191 227.56 76.454 227.56 75.088 C 227.424 72.809 226.715 70.6 225.499 68.668 C 224.026 66.345 222.407 55.554 231.24 52.959 C 240.073 50.364 246.846 48.042 247.876 46.266 C 248.907 44.49 264.071 45.583 268.193 52.413 C 272.315 59.243 274.965 57.877 274.965 57.877 C 274.965 57.877 281.296 61.838 281.296 65.389 C 281.296 68.941 279.382 70.716 281.296 71.536 C 283.21 72.356 281.738 87.108 273.346 87.518 L 272.61 95.303 C 272.61 95.303 250.084 66.755 232.565 98.992 Z" fill="#ff718e" style=""/>
  <path d="M 233.529 55.781 C 233.529 55.781 231.584 67.188 235.14 71.012 Z" opacity="0.1" style=""/>
  <path d="M 242.655 53.164 C 242.655 53.164 237.69 65.376 238.897 67.724 Z" opacity="0.1" style=""/>
  <path d="M 246.949 49.272 C 246.949 49.272 243.594 65.174 245.205 66.449 Z" opacity="0.1" style=""/>
  <path d="M 252.72 53.567 C 252.72 53.567 248.559 63.765 250.237 65.174 Z" opacity="0.1" style=""/>
  <path d="M 260.57 54.774 C 260.57 54.774 255.672 63.095 256.679 64.57 Z" opacity="0.1" style=""/>
  <path d="M 270.635 62.894 C 270.635 62.894 265.401 64.302 266.475 65.98 Z" opacity="0.1" style=""/>
  <path d="M 275.6 71.549 C 275.6 71.549 270.903 73.83 271.776 75.038 Z" opacity="0.1" style=""/>
  <path d="M 230.357 82.191 C 230.357 82.191 260.356 70.005 273.346 87.518 C 273.346 87.518 257.579 74.112 230.357 82.191 Z" opacity="0.1" style=""/>
  <polygon points="219.516 182.316 223.696 178.087 235.514 189.769 231.334 193.999 220.465 183.255 219.516 182.316" fill="#53526b" style=""/>
  <path d="M 192.092 155.207 C 192.092 155.207 210.388 156.764 227.416 175.93 L 220.319 183.109 Z" fill="#dfe6f5" style=""/>
  <path d="M 246.969 189.477 C 246.969 189.477 229.384 183.067 227.656 181.533 C 225.928 180.001 215.764 188.92 228.165 201.043 C 228.165 201.043 243.328 205.363 247.385 201.043 C 251.441 196.723 246.969 189.477 246.969 189.477 Z" fill="#fdc2cc" style=""/>
</svg>