<?xml version="1.0" encoding="utf-8"?>
<svg viewBox="0 0 500 500" xmlns="http://www.w3.org/2000/svg">
  <title>healthy_options</title>
  <title>Chef</title>
  <path d="M 480.599 496.724 L 481.901 496.724 C 482.047 496.558 482.188 496.389 482.326 496.221 C 485.292 492.617 487.302 488.323 488.169 483.736 C 489.221 478.012 488.402 472.101 485.833 466.879 C 485.116 465.415 484.272 464.016 483.309 462.701 C 482.967 462.774 482.63 462.857 482.298 462.957 C 484.83 466.312 486.533 470.218 487.269 474.356 C 488.597 482.209 486.312 490.243 481.049 496.221 C 480.903 496.389 480.752 496.558 480.599 496.724 Z" fill="#fff" style=""/>
  <path d="M 209.655 351.623 L 118.224 351.623 L 117.254 323.512 C 117.076 318.33 121.568 314.214 126.714 314.844 L 179.921 321.359 L 179.928 321.359 C 196.351 321.404 209.644 334.724 209.655 351.147 Z" fill="#ff718e" style=""/>
  <path d="M 168.904 251.906 L 105.135 251.906 C 101.568 251.905 98.676 254.797 98.677 258.364 L 98.677 322.133 C 98.676 325.7 101.568 328.591 105.135 328.59 L 168.904 328.59 C 172.471 328.591 175.362 325.7 175.361 322.133 L 175.361 258.364 C 175.362 254.797 172.471 251.905 168.904 251.906 Z" fill="#ccc" style=""/>
  <path d="M 154.542 299.59 L 124.434 305.453 C 120.715 306.173 117.116 303.747 116.388 300.03 L 114.073 288.145 C 113.354 284.427 115.78 280.827 119.497 280.099 L 149.605 274.236 C 153.323 273.516 156.923 275.942 157.651 279.659 L 159.965 291.544 C 160.685 295.263 158.259 298.862 154.542 299.59 Z" fill="#3f3d56" style=""/>
  <path d="M 148.518 285.55 L 125.541 290.024 C 124.321 290.262 123.302 289.09 123.706 287.914 C 123.894 287.369 124.358 286.965 124.924 286.855 L 147.901 282.38 C 149.121 282.143 150.141 283.315 149.736 284.49 C 149.549 285.035 149.084 285.439 148.518 285.55 Z" fill="#fff" style=""/>
  <path d="M 144.052 292.176 L 132.167 294.49 C 130.948 294.728 129.928 293.556 130.332 292.381 C 130.52 291.835 130.984 291.431 131.55 291.321 L 143.435 289.007 C 144.655 288.769 145.674 289.941 145.27 291.116 C 145.083 291.662 144.618 292.066 144.052 292.176 Z" fill="#fff" style=""/>
  <path d="M 175.361 258.364 L 175.361 266.84 L 98.677 266.84 L 98.677 258.364 C 98.676 254.797 101.568 251.905 105.135 251.906 L 168.904 251.906 C 172.471 251.905 175.362 254.797 175.361 258.364 Z" fill="#b3b3b3" style=""/>
  <path d="M 328.492 269.494 C 326.607 263.408 319.679 260.506 314.019 263.431 L 226.288 231.954 L 222.424 253.871 L 309.875 277.92 C 313.969 284.7 323.868 284.507 327.693 277.571 C 329.055 275.102 329.344 272.182 328.492 269.494 Z" fill="#ffb8b8" style=""/>
  <path d="M 328.492 269.494 C 326.607 263.408 319.679 260.506 314.019 263.431 L 226.288 231.954 L 222.424 253.871 L 309.875 277.92 C 313.969 284.7 323.868 284.507 327.693 277.571 C 329.055 275.102 329.344 272.182 328.492 269.494 Z" opacity="0.2" style=""/>
  <path d="M 241.86 235.948 L 233.575 257.591 C 232.574 260.208 229.481 261.324 227.04 259.95 L 206.905 248.617 C 197.764 245.058 195.904 232.937 203.558 226.801 C 207.089 223.969 211.858 223.223 216.086 224.842 L 238.569 229.828 C 241.304 230.436 242.861 233.331 241.86 235.948 Z" fill="#ff718e" style=""/>
  <path d="M 335.397 289.534 L 303.962 303.823 L 308.089 319.361 C 316.059 349.365 318.174 380.624 314.319 411.429 L 314.319 411.429 L 337.303 416.229 L 356.355 367.647 L 349.686 312.396 Z" fill="#ff718e" style=""/>
  <path d="M 397.078 361.455 C 376.424 361.455 359.592 376.47 358.775 395.272 L 435.381 395.272 C 434.564 376.47 417.732 361.455 397.078 361.455 Z" fill="#3f3d56" style=""/>
  <path d="M 381 364.695 C 379.925 279.82 331.587 287.629 331.587 287.629 C 331.587 287.629 332.491 314.047 332.926 314.869 C 363.728 373.148 312.892 441.473 248.183 428.903 C 246.963 428.666 245.791 428.426 244.666 428.182 C 227.649 424.629 216.322 408.464 218.791 391.257 C 225.165 340.068 193.461 340.974 193.461 340.974 L 147.101 340.974 L 123.026 319.306 C 119.347 315.996 113.488 317.445 111.777 322.089 L 108.68 330.496 C 108.68 330.496 62.955 335.259 66.765 380.031 L 80.902 380.031 C 80.868 381.303 80.919 382.576 81.054 383.841 L 186.555 382.983 C 192.739 382.933 198.198 387.944 198.224 394.128 C 198.25 400.476 192.999 405.577 186.655 405.365 L 169.646 404.798 C 164.407 428.137 177.267 443.855 191.436 453.738 C 204.778 462.908 220.608 467.77 236.797 467.669 L 283.005 467.669 C 343.018 467.669 353.497 417.182 353.497 417.182 C 384.932 403.845 381 364.695 381 364.695 Z" fill="#3f3d56" style=""/>
  <circle cx="394.22" cy="441.711" r="53.584" fill="#3f3d56" style=""/>
  <circle cx="394.22" cy="441.711" r="13.133" fill="#fff" style=""/>
  <circle cx="123.683" cy="433.614" r="61.681" fill="#3f3d56" style=""/>
  <circle cx="123.683" cy="433.614" r="15.118" fill="#fff" style=""/>
  <path d="M 304.051 308.045 L 292.74 277.324 C 290.261 270.591 293.71 263.122 300.444 260.643 L 332.87 248.706 C 344.718 244.343 357.859 250.411 362.222 262.259 C 363.157 264.787 363.635 267.462 363.633 270.158 C 363.608 277.091 360.463 283.644 355.071 288 C 353.147 289.544 350.985 290.763 348.669 291.61 Z" fill="#3f3d56" style=""/>
  <path d="M 363.156 270.158 C 363.151 276.95 360.068 283.375 354.773 287.629 C 337.708 283.127 328.766 264.382 336.007 248.286 C 349.961 245.252 363.151 255.878 363.156 270.158 Z" fill="#ff718e" style=""/>
  <ellipse cx="74.862" cy="370.028" rx="13.336" ry="16.194" fill="#ff718e" style=""/>
  <polygon points="251.151 427.352 262.83 427.352 268.386 397.062 251.149 397.063 251.151 427.352" fill="#ffb8b8" style=""/>
  <path d="M 248.172 423.539 L 271.171 423.538 L 271.172 423.538 C 279.267 423.538 285.829 430.1 285.829 438.195 L 285.829 438.671 L 248.173 438.673 Z" fill="#2f2e41" style=""/>
  <path d="M 264.707 414.92 C 264.571 414.92 264.434 414.913 264.297 414.9 L 248.135 413.724 C 245.334 413.464 243.538 410.621 244.506 407.98 L 266.136 359.384 C 266.449 358.508 266.381 357.541 265.949 356.718 C 265.519 355.884 264.752 355.274 263.843 355.041 C 253.672 352.383 227.576 345.303 204.985 337.02 C 195.307 333.471 189.211 328.342 186.868 321.777 C 183.779 313.12 188.349 305.226 188.545 304.895 L 188.698 304.635 L 209.955 306.568 L 233 308.528 L 283.5 335.608 C 292.275 340.353 295.932 351.044 291.901 360.17 L 268.618 412.379 C 267.93 413.924 266.398 414.919 264.707 414.92 Z" fill="#2f2e41" style=""/>
  <circle cx="213.651" cy="187.026" r="23.397" fill="#ffb8b8" style=""/>
  <polygon points="244.483 430.209 256.162 430.209 261.718 399.92 244.481 399.921 244.483 430.209" fill="#ffb8b8" style=""/>
  <path d="M 241.504 426.397 L 264.503 426.396 L 264.504 426.396 C 272.599 426.396 279.161 432.958 279.161 441.053 L 279.161 441.529 L 241.504 441.53 Z" fill="#2f2e41" style=""/>
  <path d="M 258.039 417.778 C 257.903 417.778 257.766 417.771 257.629 417.758 L 241.467 416.581 C 238.665 416.321 236.87 413.479 237.838 410.838 L 259.468 362.242 C 259.78 361.366 259.713 360.399 259.281 359.575 C 258.85 358.742 258.084 358.131 257.175 357.899 C 247.004 355.24 220.907 348.161 198.317 339.878 C 188.639 336.329 182.543 331.2 180.2 324.634 C 177.111 315.978 181.681 308.084 181.877 307.753 L 182.03 307.493 L 203.287 309.425 L 226.332 311.385 L 276.832 338.466 C 285.607 343.211 289.264 353.902 285.233 363.028 L 261.95 415.237 C 261.262 416.782 259.73 417.777 258.039 417.778 Z" fill="#2f2e41" style=""/>
  <path d="M 220.867 223.69 L 196.1 215.117 C 196.1 215.117 180.551 227.062 188.021 256.696 C 191.92 271.988 190.784 288.13 184.782 302.726 C 184.059 304.531 183.226 306.291 182.287 307.995 C 182.287 307.995 209.912 341.336 235.632 316.568 L 225.63 268.462 C 225.63 268.462 241.348 236.55 220.867 223.69 Z" fill="#ff718e" style=""/>
  <path d="M 216.556 211.219 C 213.226 206.234 210.598 199.323 214.265 194.581 C 217.884 189.899 225.022 190.589 230.564 188.518 C 238.284 185.633 242.761 176.563 241.365 168.441 C 239.969 160.319 233.449 153.586 225.681 150.831 C 217.914 148.076 209.155 148.972 201.549 152.145 C 192.186 156.05 184.154 163.605 180.785 173.174 C 177.417 182.744 179.218 194.234 186.205 201.59 C 193.696 209.476 205.453 211.577 216.329 211.45" fill="#2f2e41" style=""/>
  <path d="M 194.792 168.702 C 190.596 172.118 184.195 170.6 179.69 167.603 C 175.186 164.605 171.531 160.336 166.658 157.986 C 158.066 153.842 147.679 156.596 139.317 161.186 C 130.955 165.776 123.543 172.117 114.71 175.719 C 105.877 179.321 94.607 179.499 87.918 172.698 C 81.762 190.535 97.223 208.348 115.749 204.761 C 118.611 204.207 121.351 203.146 123.841 201.63 C 133.519 195.735 138.864 183.375 149.719 180.121 C 155.726 178.32 162.176 179.77 168.246 181.341 C 174.317 182.912 180.647 184.609 186.773 183.272 C 192.9 181.935 198.63 176.429 197.851 170.207 Z" fill="#2f2e41" style=""/>
  <path d="M 327.328 268.541 C 324.706 262.734 317.473 260.709 312.217 264.31 L 221.273 243.898 L 220.143 266.124 L 309.893 279.199 C 314.792 285.423 324.591 284.009 327.532 276.655 C 328.578 274.037 328.505 271.103 327.328 268.541 Z" fill="#ffb8b8" style=""/>
  <path d="M 237.219 245.94 L 231.668 268.44 C 230.997 271.16 228.066 272.649 225.473 271.587 L 204.094 262.825 C 194.582 260.428 191.233 248.632 198.065 241.593 C 201.223 238.34 205.871 237.009 210.271 238.099 L 233.198 240.273 C 235.987 240.539 237.89 243.22 237.218 245.94 Z" fill="#ff718e" style=""/>
  <circle cx="316.822" cy="279.532" r="6.668" fill="#ff718e" style=""/>
</svg>