<?xml version="1.0" encoding="utf-8"?>
<svg viewBox="7.263 0 492.737 367.656" xmlns="http://www.w3.org/2000/svg" xmlns:xlink="http://www.w3.org/1999/xlink">
  <defs>
    <linearGradient id="a8b3c97d-e0d9-42bd-b729-a4d45980fc6b" x1="736" y1="734.18" x2="736" y2="307.18" gradientUnits="userSpaceOnUse" gradientTransform="matrix(0.507165, 0, 0, 0.507165, -52.374048, -50.315784)">
      <stop offset="0" stop-color="gray" stop-opacity="0.25"/>
      <stop offset="0.54" stop-color="gray" stop-opacity="0.12"/>
      <stop offset="1" stop-color="gray" stop-opacity="0.1"/>
    </linearGradient>
    <linearGradient id="b66fe85f-ad74-4eee-9789-144feaee2a7f" x1="381.42" y1="718.18" x2="381.42" y2="312.18" gradientTransform="matrix(0.390404, 0, 0, 0.390404, -215.399648, -131.552681)" xlink:href="#a8b3c97d-e0d9-42bd-b729-a4d45980fc6b"/>
    <linearGradient id="de64225e-aed0-4729-9589-fefa50377364" x1="586.34" y1="777.6" x2="586.34" y2="296.43" gradientUnits="userSpaceOnUse" gradientTransform="matrix(0.057804, 0, 0, 0.057804, 176.074168, 164.950211)">
      <stop offset="0" stop-color="gray" stop-opacity="0.25"/>
      <stop offset="0.54" stop-color="gray" stop-opacity="0.12"/>
      <stop offset="1" stop-color="gray" stop-opacity="0.1"/>
    </linearGradient>
    <linearGradient id="gradient-1" x1="586.34" y1="777.6" x2="586.34" y2="296.43" gradientUnits="userSpaceOnUse" gradientTransform="matrix(0.057804, 0, 0, 0.057804, 244.284907, 164.323761)">
      <stop offset="0" stop-color="gray" stop-opacity="0.25"/>
      <stop offset="0.54" stop-color="gray" stop-opacity="0.12"/>
      <stop offset="1" stop-color="gray" stop-opacity="0.1"/>
    </linearGradient>
  </defs>
  <title>eating_together</title>
  <ellipse cx="55.136" cy="272.241" rx="22.822" ry="8.114" opacity="0.1" style=""/>
  <ellipse cx="423.835" cy="305.791" rx="22.822" ry="8.114" opacity="0.1" style=""/>
  <path d="M 293.006 20.616 C 258.275 34.031 220.629 34.655 185.66 22.026 C 136.099 4.134 71.375 -0.446 47.391 81.547 C 6.458 221.631 90.201 271.633 90.201 271.633 C 90.201 271.633 148.667 284.738 181.039 308.417 C 227.024 342.053 283.339 353.296 336.389 337.523 C 370.313 327.436 399.389 310.887 407.701 283.81 C 430.95 208.08 416.191 162.562 458.266 142.595 C 500.34 122.628 476.93 48.657 447.007 46.979 C 417.084 45.3 346.588 62.458 324.78 28.331 C 317.005 16.215 305.112 15.935 293.006 20.616 Z" opacity="0.1" style=""/>
  <path d="M 422.912 306.942 C 422.912 306.942 428.997 286.229 421.765 270.984 C 418.685 264.609 417.756 257.407 419.118 250.459 C 419.79 247.164 420.763 243.939 422.024 240.822" fill="none" stroke="#535461" stroke-miterlimit="10" stroke-width="2" style=""/>
  <path d="M 417.52 231.191 C 417.52 233.727 422.115 241.091 422.115 241.091 C 422.115 241.091 426.71 233.732 426.71 231.191 C 426.71 227.653 422.879 225.44 419.814 227.21 C 418.391 228.031 417.515 229.549 417.515 231.191 Z" fill="#ff718e" style=""/>
  <path d="M 409.923 245.255 C 411.303 247.385 419.163 251.067 419.163 251.067 C 419.163 251.067 419.022 242.39 417.642 240.26 C 415.719 237.29 411.303 237.516 409.693 240.666 C 408.946 242.127 409.036 243.877 409.928 245.255 Z" fill="#ff718e" style=""/>
  <path d="M 410.253 269.279 C 412.52 270.42 421.162 269.634 421.162 269.634 C 421.162 269.634 416.658 262.214 414.391 261.073 C 411.233 259.481 407.534 261.904 407.734 265.436 C 407.827 267.075 408.787 268.54 410.253 269.279 Z" fill="#ff718e" style=""/>
  <path d="M 414.599 287.405 C 416.628 288.927 425.29 289.597 425.29 289.597 C 425.29 289.597 422.105 281.523 420.066 280.016 C 417.222 277.912 413.167 279.676 412.766 283.191 C 412.58 284.822 413.279 286.429 414.599 287.405 Z" fill="#ff718e" style=""/>
  <path d="M 428.81 251.559 C 426.989 253.329 418.504 255.16 418.504 255.16 C 418.504 255.16 420.583 246.736 422.404 244.966 C 424.942 242.5 429.197 243.707 430.063 247.137 C 430.465 248.729 429.988 250.415 428.81 251.559 Z" fill="#ff718e" style=""/>
  <path d="M 433.622 272.815 C 431.356 273.956 422.714 273.17 422.714 273.17 C 422.714 273.17 427.217 265.75 429.484 264.634 C 432.643 263.041 436.341 265.464 436.141 268.997 C 436.049 270.635 435.088 272.1 433.622 272.84 Z" fill="#ff718e" style=""/>
  <path d="M 435.464 294.12 C 433.435 295.642 424.773 296.311 424.773 296.311 C 424.773 296.311 427.958 288.238 429.997 286.731 C 432.84 284.626 436.896 286.39 437.297 289.906 C 437.483 291.537 436.784 293.144 435.464 294.12 Z" fill="#ff718e" style=""/>
  <path d="M 55.146 272.302 C 55.146 272.302 68.175 228.118 52.712 195.558 C 46.22 181.9 44.089 166.573 47.067 151.754 C 48.502 144.725 50.578 137.843 53.269 131.194" fill="none" stroke="#535461" stroke-miterlimit="10" stroke-width="2" style=""/>
  <path d="M 43.649 110.628 C 43.649 116.044 53.457 131.757 53.457 131.757 C 53.457 131.757 63.26 116.035 63.26 110.628 C 63.26 103.078 55.087 98.358 48.548 102.134 C 45.513 103.886 43.643 107.124 43.643 110.628 Z" fill="#ff718e" style=""/>
  <path d="M 27.434 140.637 C 30.381 145.202 47.153 153.043 47.153 153.043 C 47.153 153.043 46.849 134.52 43.902 129.976 C 39.652 123.735 30.24 124.435 26.96 131.236 C 25.509 134.243 25.688 137.781 27.434 140.627 Z" fill="#ff718e" style=""/>
  <path d="M 28.139 191.922 C 32.978 194.361 51.423 192.678 51.423 192.678 C 51.423 192.678 41.787 176.844 36.974 174.42 C 30.232 171.019 22.336 176.193 22.762 183.732 C 22.961 187.231 25.01 190.358 28.139 191.937 Z" fill="#ff718e" style=""/>
  <path d="M 37.395 230.603 C 41.752 233.823 60.217 235.279 60.217 235.279 C 60.217 235.279 53.421 218.035 49.06 214.83 C 42.989 210.341 34.334 214.107 33.481 221.609 C 33.086 225.091 34.578 228.52 37.395 230.603 Z" fill="#ff718e" style=""/>
  <path d="M 67.749 154.072 C 63.864 157.845 45.758 161.755 45.758 161.755 C 45.758 161.755 50.191 143.771 54.075 139.998 C 59.493 134.727 68.584 137.298 70.44 144.624 C 71.301 148.024 70.283 151.626 67.769 154.072 Z" fill="#ff718e" style=""/>
  <path d="M 78.019 199.468 C 73.181 201.907 54.735 200.224 54.735 200.224 C 54.735 200.224 64.371 184.39 69.184 181.966 C 75.927 178.566 83.822 183.739 83.396 191.278 C 83.198 194.777 81.148 197.906 78.019 199.484 Z" fill="#ff718e" style=""/>
  <path d="M 81.949 244.941 C 77.593 248.161 59.127 249.617 59.127 249.617 C 59.127 249.617 65.923 232.373 70.284 229.168 C 76.356 224.678 85.01 228.444 85.863 235.946 C 86.259 239.428 84.767 242.857 81.949 244.941 Z" fill="#ff718e" style=""/>
  <rect x="157.365" y="215.474" width="6.892" height="98.826" fill="#40414d" style=""/>
  <rect x="307.902" y="215.474" width="6.892" height="98.826" fill="#40414d" style=""/>
  <path d="M 154.733 207.431 L 313.982 207.431 C 320.145 207.431 325.14 212.426 325.14 218.588 L 325.14 220.069 C 325.14 220.069 325.14 220.069 325.14 220.069 L 143.575 220.069 C 143.575 220.069 143.575 220.069 143.575 220.069 L 143.575 218.588 C 143.575 212.426 148.571 207.431 154.733 207.431 Z" fill="#dfe6f5" style=""/>
  <path d="M 154.226 207.431 L 313.476 207.431 C 319.638 207.431 324.633 212.426 324.633 218.588 L 324.633 220.069 C 324.633 220.069 324.633 220.069 324.633 220.069 L 143.068 220.069 C 143.068 220.069 143.068 220.069 143.068 220.069 L 143.068 218.588 C 143.068 212.426 148.063 207.431 154.226 207.431 Z" opacity="0.1" style=""/>
  <path d="M 154.733 205.129 L 313.982 205.129 C 320.145 205.129 325.14 210.124 325.14 216.286 L 325.14 217.767 C 325.14 217.767 325.14 217.767 325.14 217.767 L 143.575 217.767 C 143.575 217.767 143.575 217.767 143.575 217.767 L 143.575 216.286 C 143.575 210.124 148.571 205.129 154.733 205.129 Z" fill="#dfe6f5" style=""/>
  <rect x="285.585" y="269.812" width="6.892" height="149.39" transform="matrix(0, 1, -1, 0, 581.161316, 5.157931)" fill="#40414d" style=""/>
  <rect x="99.918" y="266.673" width="6.03" height="54.865" fill="#40414d" style=""/>
  <rect x="147.546" y="266.673" width="6.03" height="54.865" fill="#40414d" style=""/>
  <path d="M 158.405 257.63 C 158.405 261.291 145.989 264.263 130.673 264.263 C 115.356 264.263 103.544 261.297 103.544 257.63 C 103.544 253.963 115.356 250.996 130.673 250.996 C 145.989 250.996 158.405 253.983 158.405 257.63 Z" fill="#f6c6cd" style=""/>
  <path d="M 95.095 257.625 L 158.399 257.625 C 158.399 257.625 158.399 257.625 158.399 257.625 L 158.399 263.153 C 158.399 266.094 156.015 268.478 153.075 268.478 L 104.224 268.478 C 99.182 268.478 95.095 264.391 95.095 259.349 L 95.095 257.625 C 95.095 257.625 95.095 257.625 95.095 257.625 Z" fill="#40414d" style=""/>
  <path d="M 92.625 193.118 L 93.963 193.118 C 95.924 193.118 97.514 194.708 97.514 196.668 L 97.514 268.473 C 97.514 268.473 97.514 268.473 97.514 268.473 L 95.485 268.473 C 91.94 268.473 89.064 265.598 89.064 262.052 L 89.064 196.668 C 89.064 194.704 90.66 193.113 92.625 193.118 Z" fill="#40414d" style="" transform="matrix(0.975458, -0.220187, 0.220187, 0.975458, -48.528626, 26.205275)"/>
  <rect x="-369.806" y="-322.511" width="6.03" height="54.865" transform="matrix(-1, 0, 0, -1, 0, 0)" fill="#40414d" style=""/>
  <rect x="-322.178" y="-322.511" width="6.03" height="54.865" transform="matrix(-1, 0, 0, -1, 0, 0)" fill="#40414d" style=""/>
  <path d="M 311.33 258.604 C 311.33 262.265 323.746 265.237 339.062 265.237 C 354.378 265.237 366.19 262.27 366.19 258.604 C 366.19 254.937 354.373 251.955 339.062 251.955 C 323.75 251.955 311.33 254.942 311.33 258.604 Z" fill="#f6c6cd" style=""/>
  <path d="M 320.454 258.604 L 369.304 258.604 C 372.245 258.604 374.629 260.988 374.629 263.929 L 374.629 269.457 C 374.629 269.457 374.629 269.457 374.629 269.457 L 311.325 269.457 C 311.325 269.457 311.325 269.457 311.325 269.457 L 311.325 267.733 C 311.325 262.691 315.412 258.604 320.454 258.604 Z" fill="#40414d" style="" transform="matrix(-1, 0, 0, -1, 685.95401, 528.061005)"/>
  <path d="M 378.631 194.08 L 380.659 194.08 C 380.659 194.08 380.659 194.08 380.659 194.08 L 380.659 265.895 C 380.659 267.855 379.069 269.445 377.109 269.445 L 375.77 269.445 C 373.809 269.445 372.22 267.855 372.22 265.895 L 372.22 200.501 C 372.22 196.959 375.088 194.086 378.631 194.08 Z" fill="#40414d" style="" transform="matrix(-0.975458, -0.220187, 0.220187, -0.975458, 692.609225, 540.724087)"/>
  <path d="M 368.153 237.247 L 369.933 236.684 C 369.933 236.684 366.89 216.357 366.921 198.139 C 366.921 197.632 366.921 197.09 366.921 196.567 C 366.956 195.431 366.997 194.305 367.053 193.205 C 367.123 191.795 367.139 190.451 367.128 189.148 C 367.296 171.604 360.383 164.195 360.383 164.195 C 360.383 164.195 352.269 152.622 347.405 150.37 C 346.984 149.051 346.502 147.357 346.076 145.39 C 346.233 145.283 346.385 145.176 346.533 145.065 C 348.541 143.574 350.463 141.971 352.288 140.262 C 354.784 137.924 357.178 135.073 357.046 131.858 C 357.06 131.545 357.049 131.232 357.016 130.92 C 356.554 127.04 352.522 124.119 350.894 120.442 C 349.525 117.353 349.936 113.914 348.739 110.78 C 347.541 107.646 343.362 104.73 340.208 106.378 C 339.047 106.987 338.347 108.062 337.378 108.878 C 334.974 110.907 331.099 111.095 327.813 110.171 C 324.527 109.248 323.553 105.486 318.958 105.475 C 319.366 105.612 319.756 105.798 320.12 106.028 C 319.735 105.963 319.347 105.93 318.958 105.927 C 320.867 106.531 322.242 108.202 322.468 110.192 C 322.46 110.314 322.447 110.436 322.427 110.557 C 320.591 111.546 318.177 110.983 315.976 110.948 C 313.775 110.912 311.269 112.023 311.487 113.823 C 311.45 114.028 311.45 114.237 311.487 114.442 C 311.777 115.807 313.602 116.836 313.826 118.099 C 313.826 118.134 313.826 118.165 313.826 118.2 C 309.752 120.235 305.346 121.521 300.817 121.994 C 300.67 121.994 300.736 122.171 300.948 122.43 L 300.817 122.43 C 299.99 122.516 305.772 127.085 306.431 127.385 C 308.845 128.48 311.731 129.287 314.287 130.129 L 314.51 130.2 C 313.649 132.201 313.206 134.356 313.207 136.534 C 313.207 144.345 318.821 150.907 326.423 152.763 C 327.843 154.422 329.334 156.243 330.693 158.053 L 330.597 158.053 C 330.597 158.053 321.859 169.677 322.138 187.038 C 322.113 189.213 322.228 191.389 322.483 193.55 C 316.863 193.23 304.787 191.749 295.603 185.024 C 283.213 175.961 269.393 178.68 272.273 184.117 C 275.154 189.553 289.907 194.082 292.286 194.539 C 292.509 194.579 293.026 194.701 293.767 194.883 C 290.836 195.436 288.827 196.405 288.949 197.709 C 289.187 200.198 301.815 208.131 309.438 208.582 C 314.474 208.881 320.535 210.433 325.318 211.797 C 325.779 222.22 323.259 225.344 323.259 225.344 C 323.259 225.344 324.009 225.805 325.252 226.459 L 324.719 227.981 C 321.626 229.766 317.812 231.627 314.343 232.378 C 309.922 233.286 305.625 234.717 301.542 236.639 L 284.384 244.931 C 281.269 246.376 279.121 249.327 278.704 252.736 C 278.329 256.251 279.389 260.642 285.13 264.127 C 285.485 266.982 287.23 270.314 291.809 273.367 C 300.685 279.271 324.009 296.955 327.184 299.369 C 327.245 303.686 326.677 312.343 321.352 313.692 C 314.677 315.386 320.048 321.807 325.444 321.553 C 326.725 322.037 328.119 322.14 329.456 321.847 C 335.177 320.488 356.143 313.226 357.574 302.362 C 357.633 301.891 357.66 301.417 357.655 300.942 C 357.738 299.09 357.276 297.254 356.326 295.662 C 356.549 296.153 356.731 296.662 356.869 297.183 C 355.134 293.228 350.909 290.743 347.623 289.343 C 347.623 289.308 347.623 289.267 347.623 289.231 C 347.116 289.033 346.608 288.871 346.193 288.724 C 346.201 288.43 346.179 288.136 346.127 287.847 L 313.247 265.192 C 313.247 265.192 327.544 253.41 342.318 255.226 C 357.091 257.042 359.445 254.359 359.445 254.359 C 359.445 254.359 367.022 247.152 367.783 238.855 L 368.26 238.728 C 368.26 238.728 368.224 238.205 368.153 237.247 Z" fill="url(#a8b3c97d-e0d9-42bd-b729-a4d45980fc6b)" style=""/>
  <path d="M 328.001 296.256 C 328.001 296.256 329.345 311.05 322.62 312.845 C 315.894 314.64 322.173 321.812 327.549 320.453 C 332.925 319.093 352.659 311.932 354.003 301.18 C 355.347 290.428 340.553 286.832 340.553 286.832 Z" fill="#b8616e" style=""/>
  <path d="M 328.001 296.256 C 328.001 296.256 329.345 311.05 322.62 312.845 C 315.894 314.64 322.173 321.812 327.549 320.453 C 332.925 319.093 352.659 311.932 354.003 301.18 C 355.347 290.428 340.553 286.832 340.553 286.832 Z" opacity="0.05" style=""/>
  <path d="M 330.704 296.702 C 330.704 296.702 332.048 311.496 325.323 313.292 C 318.598 315.087 324.876 322.258 330.253 320.899 C 335.628 319.539 355.362 312.378 356.706 301.627 C 358.05 290.874 343.256 287.279 343.256 287.279 Z" fill="#b8616e" style=""/>
  <path d="M 344.6 287.736 L 332.058 297.153 C 332.058 297.153 332.114 297.792 332.149 298.811 C 336.886 297.513 347.207 294.064 347.364 288.668 C 346.462 288.302 345.539 287.991 344.6 287.736 Z" opacity="0.1" style=""/>
  <rect x="331.373" y="158.829" width="5.381" height="4.037" fill="#f8bdc5" style=""/>
  <path d="M 331.601 224.061 C 331.601 224.061 323.056 230.776 316.037 232.368 C 311.863 233.271 307.817 234.687 303.992 236.583 L 287.848 244.789 C 284.869 246.287 282.856 249.197 282.503 252.513 C 282.041 257.077 283.877 263.082 294.832 266.652 L 329.355 295.348 L 340.117 286.381 L 303.352 258.142 L 331.601 240.655 Z" fill="#758ac8" style=""/>
  <path d="M 331.601 224.061 C 331.601 224.061 323.056 230.776 316.037 232.368 C 311.863 233.271 307.817 234.687 303.992 236.583 L 287.848 244.789 C 284.869 246.287 282.856 249.197 282.503 252.513 C 282.041 257.077 283.877 263.082 294.832 266.652 L 329.355 295.348 L 340.117 286.381 L 303.352 258.142 L 331.601 240.655 Z" opacity="0.1" style=""/>
  <path d="M 326.666 194.026 C 326.666 194.026 310.077 194.473 298.418 185.506 C 286.758 176.539 273.759 179.227 276.447 184.608 C 279.135 189.99 293.037 194.473 295.278 194.919 C 297.52 195.365 329.801 204.337 329.801 204.337 Z" fill="#f8bdc5" style=""/>
  <path d="M 326.666 194.026 C 326.666 194.026 310.077 194.473 298.418 185.506 C 286.758 176.539 273.759 179.227 276.447 184.608 C 279.135 189.99 293.037 194.473 295.278 194.919 C 297.52 195.365 329.801 204.337 329.801 204.337 Z" opacity="0.05" style=""/>
  <path d="M 328.462 220.034 L 323.081 236.177 C 323.081 236.177 292.819 254.785 290.349 257.249 C 288.432 259.167 285.865 266.668 294.832 272.941 C 303.799 279.215 328.457 298.948 328.457 298.948 C 328.457 298.948 347.288 294.891 345.944 287.284 L 315.007 264.867 C 315.007 264.867 328.457 253.203 342.358 255.003 C 356.26 256.803 358.501 254.105 358.501 254.105 C 358.501 254.105 369.264 243.333 365.673 233.037 C 362.082 222.742 328.462 220.034 328.462 220.034 Z" fill="#758ac8" style=""/>
  <path d="M 321.737 146.971 C 321.737 146.971 336.983 163.561 336.085 168.491 C 335.187 173.42 348.191 154.143 348.191 154.143 C 348.191 154.143 344.133 144.279 345.052 133.516 Z" fill="#f8bdc5" style=""/>
  <path d="M 335.04 162.187 C 336.08 161.089 337.175 160.044 338.321 159.057 C 340.616 157.176 342.72 155.075 344.605 152.784 C 347.744 148.727 359.399 166.233 359.399 166.233 C 359.399 166.233 366.57 174.303 365.678 193.585 C 364.785 212.867 366.799 238.647 366.799 238.647 L 364.085 239.402 C 359.452 240.949 354.36 240.225 350.342 237.45 C 346.761 234.975 342.226 232.378 338.778 232.145 C 332.053 231.699 325.997 227.884 325.997 227.884 C 325.997 227.884 328.914 220.936 324.43 198.515 C 319.947 176.093 331.373 160.158 331.373 160.158 C 331.373 160.158 332.276 165.037 335.04 162.187 Z" opacity="0.1" style=""/>
  <path d="M 368.366 236.623 L 365.678 237.521 L 364.08 238.053 C 359.447 239.6 354.355 238.877 350.336 236.101 C 346.761 233.631 342.221 231.029 338.773 230.796 C 332.058 230.345 324.45 225.415 324.45 225.415 C 324.45 225.415 328.934 219.588 324.45 197.166 C 319.967 174.744 331.398 158.829 331.398 158.829 C 331.398 158.829 332.302 163.682 335.065 160.828 C 336.103 159.731 337.197 158.688 338.342 157.703 C 340.636 155.822 342.74 153.721 344.625 151.43 C 347.765 147.372 359.42 164.88 359.42 164.88 C 359.42 164.88 366.591 172.948 365.698 192.231 C 365.602 194.26 365.562 196.349 365.556 198.464 C 365.49 216.509 368.366 236.623 368.366 236.623 Z" fill="#5e52ad" style=""/>
  <path d="M 342.81 192.682 L 343.256 202.547 C 343.256 202.547 319.49 203.891 314.561 198.961 C 309.631 194.032 328.001 213.461 332.058 214.653 C 335.867 215.774 345.701 216.762 350.859 216.864 C 353.869 216.961 356.653 215.273 357.959 212.558 C 358.56 211.251 358.754 209.793 358.516 208.374 C 357.619 202.547 358.516 189.99 358.516 189.99 Z" opacity="0.1" style=""/>
  <path d="M 342.81 191.785 L 343.256 201.649 C 343.256 201.649 319.49 202.993 314.561 198.064 C 309.631 193.134 291.794 194.224 292.144 198.064 C 292.367 200.528 304.25 208.374 311.416 208.825 C 318.582 209.277 328.001 212.563 332.058 213.755 C 335.867 214.876 345.701 215.865 350.859 215.967 C 353.869 216.063 356.653 214.375 357.959 211.66 C 358.56 210.353 358.754 208.895 358.516 207.477 C 357.619 201.649 358.516 189.092 358.516 189.092 Z" fill="#f8bdc5" style=""/>
  <path d="M 348.191 163.089 C 348.191 163.089 337.88 164.434 339.224 179.679 C 340.568 194.924 342.364 196.268 342.364 196.268 C 342.364 196.268 357.609 194.924 359.399 194.473 C 361.189 194.021 360.297 177.437 360.297 177.437 C 360.297 177.437 359.845 162.643 348.191 163.089 Z" opacity="0.1" style=""/>
  <path d="M 348.191 162.643 C 348.191 162.643 337.88 163.987 339.224 179.233 C 340.568 194.478 342.364 195.822 342.364 195.822 C 342.364 195.822 357.609 194.478 359.399 194.026 C 361.189 193.575 360.297 176.99 360.297 176.99 C 360.297 176.99 359.845 162.187 348.191 162.643 Z" fill="#5e52ad" style=""/>
  <path d="M 344.377 143.138 C 343.672 139.587 345.118 138.492 345.498 133.947 L 322.169 147.398 C 322.169 147.398 324.841 150.308 327.879 154.047 C 329.237 154.39 330.632 154.561 332.033 154.553 C 338.144 154.579 341.486 148.016 344.377 143.138 Z" opacity="0.1" style=""/>
  <circle cx="331.597" cy="137.533" r="16.589" fill="#f8bdc5" style=""/>
  <path d="M 335.78 132.497 C 333.244 134.11 333.209 137.756 334.842 140.282 C 336.475 142.807 339.29 144.476 341.999 146.048 C 342.785 146.505 343.652 146.977 344.534 146.875 C 345.212 146.743 345.841 146.425 346.35 145.957 C 348.245 144.478 350.054 142.892 351.767 141.205 C 354.231 138.781 356.6 135.793 356.214 132.411 C 355.778 128.572 351.985 125.681 350.453 122.045 C 349.165 119.001 349.55 115.589 348.424 112.479 C 347.298 109.37 343.352 106.495 340.401 108.122 C 339.31 108.721 338.651 109.791 337.738 110.598 C 335.476 112.596 331.83 112.794 328.736 111.881 C 325.642 110.968 324.724 107.24 320.408 107.23 C 322.554 107.986 324.004 110.222 323.675 112.261 C 321.945 113.24 319.673 112.682 317.588 112.647 C 315.504 112.611 313.024 113.777 313.384 115.654 C 313.698 117.176 315.894 118.307 315.57 119.828 C 311.76 121.835 307.607 123.108 303.327 123.581 C 302.551 123.667 307.988 128.186 308.607 128.485 C 310.874 129.571 313.597 130.367 315.996 131.199 C 322.513 133.445 329.187 134.247 335.78 132.497 Z" opacity="0.1" style=""/>
  <path d="M 335.78 132.046 C 333.244 133.659 333.209 137.305 334.842 139.831 C 336.475 142.356 339.29 144.025 341.999 145.597 C 342.785 146.054 343.652 146.525 344.534 146.424 C 345.212 146.291 345.841 145.974 346.35 145.506 C 348.245 144.027 350.054 142.441 351.767 140.754 C 354.231 138.329 356.6 135.342 356.214 131.96 C 355.778 128.12 351.985 125.229 350.453 121.593 C 349.165 118.55 349.55 115.137 348.424 112.028 C 347.298 108.919 343.352 106.043 340.401 107.671 C 339.31 108.27 338.651 109.34 337.738 110.146 C 335.476 112.145 331.83 112.342 328.736 111.429 C 325.642 110.517 324.724 106.789 320.408 106.779 C 322.554 107.535 324.004 109.771 323.675 111.81 C 321.945 112.788 319.673 112.231 317.588 112.195 C 315.504 112.16 313.024 113.326 313.384 115.203 C 313.698 116.724 315.894 117.855 315.57 119.377 C 311.76 121.384 307.607 122.657 303.327 123.13 C 302.551 123.216 307.988 127.735 308.607 128.034 C 310.874 129.119 313.597 129.916 315.996 130.747 C 322.513 132.999 329.187 133.785 335.78 132.046 Z" fill="#916168" style=""/>
  <path d="M 355.535 295.008 C 356.255 296.668 356.506 298.495 356.26 300.288 C 354.916 311.05 335.187 318.221 329.806 319.56 C 326.971 320.27 323.882 318.612 322.589 316.618 C 323.421 318.962 327.001 321.269 330.257 320.458 C 335.639 319.114 355.367 311.937 356.711 301.185 C 357.005 299.053 356.591 296.883 355.535 295.008 Z" fill="#fff" opacity="0.1" style=""/>
  <path d="M 213.047 307.235 L 213.047 307.235 C 212.646 306.333 210.566 304.573 200.54 304.193 C 193.673 303.934 191.335 300.308 190.701 296.768 C 192.958 296.474 194.723 296.068 195.301 295.505 C 195.301 295.505 195.271 295.343 195.22 295.053 L 195.301 294.993 C 194.862 292.439 194.633 289.854 194.616 287.264 C 194.603 285.047 194.838 282.835 195.316 280.671 C 195.595 279.239 195.713 277.782 195.666 276.324 C 195.722 267.702 192.694 252.548 192.694 252.548 L 192.278 239.955 C 192.193 236.755 190.367 233.856 187.516 232.398 C 186.52 231.883 185.417 231.608 184.295 231.597 C 184.295 231.597 168.401 229.091 154.094 227.728 C 153.079 226.911 149.504 224.71 141.308 225.973 L 136.592 212.168 C 136.553 212 136.526 211.831 136.511 211.66 C 136.678 209.906 137.849 207.263 143.311 207.096 L 144.452 208.11 C 144.452 208.11 144.655 207.71 144.995 207.096 C 151.771 207.02 188.683 206.645 190.584 207.096 C 192.679 207.603 211.028 203.516 211.555 203.008 C 218.686 196.055 190.584 199.428 190.584 199.428 C 187.82 199.879 178.889 199.341 169.739 198.596 C 174.269 191.805 178.529 168.754 178.529 168.754 C 178.529 168.754 194.758 160.574 190.062 155.974 C 185.365 151.374 171.19 166.199 171.19 166.199 C 171.19 166.199 165.424 183.072 162.802 188.184 C 161.787 190.212 160.474 190.629 159.302 190.395 C 159.835 189.969 160.18 189.715 160.18 189.715 C 160.18 189.715 148.646 180.511 147.597 176.935 C 147.401 176.349 147.143 175.786 146.826 175.256 C 146.273 172.016 145.305 168.825 142.941 166.701 C 142.544 166.274 142.106 165.888 141.632 165.549 C 140.994 165.092 140.269 164.697 139.665 164.2 L 139.665 164.2 C 140.004 162.638 140.4 161.015 140.811 159.443 C 149.372 158.429 156.026 151.328 156.026 142.707 C 156.025 141.406 155.87 140.111 155.564 138.847 C 158.167 139.018 160.669 137.813 162.157 135.672 C 163.887 133.095 163.832 129.586 162.381 126.867 C 161.781 125.764 160.995 124.772 160.058 123.936 C 158.563 122.431 156.741 121.292 154.733 120.609 C 152.993 120.005 151.071 119.646 149.691 118.464 C 149.075 117.658 148.514 116.811 148.013 115.928 C 147.434 115.061 146.753 114.268 145.984 113.565 C 143.448 110.953 139.868 109.345 136.221 108.635 C 131.779 107.768 127.188 108.077 122.67 108.387 C 120.981 108.503 118.998 108.802 118.237 110.273 C 117.664 111.378 118.039 112.703 117.963 113.935 C 117.725 117.855 113.241 120.021 109.342 120.969 C 105.441 121.917 100.79 122.739 98.909 126.178 C 97.2 129.282 98.402 133.045 98.95 136.529 C 99.862 142.647 98.504 148.887 95.131 154.072 C 93.417 156.694 91.206 159.027 89.851 161.842 C 88.351 164.98 88.003 168.545 88.867 171.914 C 89.121 172.898 89.486 173.902 89.303 174.907 C 89.096 175.734 88.688 176.499 88.117 177.133 C 83.402 182.954 76.472 186.544 68.996 187.038 C 69.307 188.067 69.914 188.983 70.741 189.67 C 71.793 190.709 73.018 191.556 74.362 192.17 C 77.904 193.947 81.628 195.332 85.469 196.303 C 88.056 196.958 90.759 197.425 93.391 196.978 C 96.023 196.532 98.59 195.026 99.67 192.642 C 100.299 191.262 100.39 189.7 100.948 188.296 C 102.059 185.486 104.813 183.665 106.674 181.256 C 106.047 187.464 105.751 193.701 105.786 199.94 C 105.786 201.892 105.786 203.652 105.786 205.285 C 105.786 212.33 105.279 217.189 100.912 225.988 C 100.392 226.913 100.164 227.974 100.258 229.031 C 100.065 230.193 100.499 231.37 101.399 232.129 C 101.095 233.885 100.947 235.664 100.958 237.445 C 100.897 243.856 103.063 252.462 114.545 254.643 L 134.989 253.628 C 134.989 253.628 163.821 248.004 171.682 252.107 C 173.019 252.391 173.976 253.57 173.98 254.937 C 173.955 255.363 173.889 255.786 173.782 256.2 C 173.563 257.529 173.48 258.876 173.533 260.221 C 173.498 268.843 175.354 288.41 175.354 288.41 L 175.354 296.707 C 174.046 298.675 172.433 301.586 172.641 303.731 C 172.641 303.777 172.641 303.828 172.641 303.873 C 172.641 303.919 172.641 304 172.671 304.061 C 172.702 304.122 172.671 304.172 172.707 304.228 C 172.742 304.284 172.737 304.335 172.752 304.391 C 172.768 304.447 172.793 304.512 172.818 304.568 C 172.843 304.624 172.854 304.659 172.874 304.705 C 172.894 304.751 172.94 304.837 172.976 304.898 L 173.036 305.004 C 173.098 305.102 173.165 305.195 173.239 305.283 C 175.862 308.326 188.961 314.215 193.161 313.976 C 197.619 313.722 212.555 314.483 213.082 307.839 C 213.149 307.641 213.136 307.425 213.047 307.235 Z" fill="url(#b66fe85f-ad74-4eee-9789-144feaee2a7f)" style=""/>
  <path d="M 175.78 294.395 C 175.78 294.395 169.694 302.002 172.23 305.045 C 174.766 308.088 187.445 313.905 191.502 313.666 C 195.813 313.413 210.267 314.174 210.775 307.581 C 210.775 307.581 211.789 304.537 198.602 304.03 C 185.416 303.523 189.473 289.83 189.473 289.83 Z" fill="#594c76" style=""/>
  <path d="M 103.256 230.492 C 103.256 230.492 97.169 251.285 115.427 254.835 L 135.207 253.821 C 135.207 253.821 163.101 248.242 170.709 252.299 C 170.709 252.299 173.751 252.807 172.737 256.864 C 171.723 260.922 174.259 288.308 174.259 288.308 L 174.259 297.437 C 174.259 297.437 191.502 297.437 193.531 295.408 C 193.531 295.408 192.009 287.294 193.531 280.701 C 195.052 274.108 190.995 253.314 190.995 253.314 L 190.595 240.797 C 190.534 237.648 188.776 234.777 185.999 233.291 C 185.04 232.782 183.972 232.511 182.885 232.5 C 182.885 232.5 148.398 226.921 136.227 227.935 C 124.054 228.95 103.256 230.492 103.256 230.492 Z" opacity="0.1" style=""/>
  <path d="M 103.256 229.984 C 103.256 229.984 97.169 250.778 115.427 254.328 L 135.207 253.314 C 135.207 253.314 163.101 247.735 170.709 251.793 C 170.709 251.793 173.751 252.299 172.737 256.357 C 171.723 260.414 174.259 287.801 174.259 287.801 L 174.259 296.93 C 174.259 296.93 191.502 296.93 193.531 294.902 C 193.531 294.902 192.009 286.787 193.531 280.194 C 195.052 273.601 190.995 252.807 190.995 252.807 L 190.595 240.29 C 190.534 237.141 188.776 234.27 185.999 232.784 C 185.04 232.275 183.972 232.004 182.885 231.993 C 182.885 231.993 148.398 226.414 136.227 227.429 C 124.054 228.443 103.256 229.984 103.256 229.984 Z" fill="#8b9cd1" style=""/>
  <path d="M 155.493 188.904 C 155.493 188.904 159.551 193.976 162.086 188.904 C 164.622 183.833 170.201 167.096 170.201 167.096 C 170.201 167.096 183.895 152.388 188.459 156.953 C 193.024 161.517 177.302 169.632 177.302 169.632 C 177.302 169.632 171.723 200.569 166.651 201.076 C 161.58 201.583 153.972 201.076 153.972 201.076 L 151.436 195.497 Z" fill="#f8bdc5" style=""/>
  <path d="M 155.493 188.904 C 155.493 188.904 159.551 193.976 162.086 188.904 C 164.622 183.833 170.201 167.096 170.201 167.096 C 170.201 167.096 183.895 152.388 188.459 156.953 C 193.024 161.517 177.302 169.632 177.302 169.632 C 177.302 169.632 171.723 200.569 166.651 201.076 C 161.58 201.583 153.972 201.076 153.972 201.076 L 151.436 195.497 Z" opacity="0.05" style=""/>
  <path d="M 137.235 163.546 C 137.235 163.546 146.364 174.196 147.379 177.746 C 148.393 181.297 159.551 190.426 159.551 190.426 C 159.551 190.426 151.436 196.511 152.958 199.555 C 154.479 202.597 142.307 189.411 142.307 189.411 L 128.107 168.617 Z" fill="#eb6475" style=""/>
  <path d="M 137.235 163.546 C 137.235 163.546 146.364 174.196 147.379 177.746 C 148.393 181.297 159.551 190.426 159.551 190.426 C 159.551 190.426 151.436 196.511 152.958 199.555 C 154.479 202.597 142.307 189.411 142.307 189.411 L 128.107 168.617 Z" opacity="0.1" style=""/>
  <path d="M 143.322 151.374 C 143.322 151.374 138.757 166.081 138.757 171.66 C 138.757 177.24 119.485 170.139 119.992 167.096 C 120.499 164.053 131.149 152.895 131.657 148.331 C 132.164 143.766 143.322 151.374 143.322 151.374 Z" fill="#f8bdc5" style=""/>
  <path d="M 128.107 161.517 C 128.107 161.517 110.356 156.953 107.82 182.818 C 105.284 208.684 109.849 211.726 102.241 227.448 C 94.633 243.17 153.972 229.477 153.972 229.477 C 153.972 229.477 150.929 225.927 141.293 227.448 L 136.729 213.755 C 136.729 213.755 135.207 207.669 143.829 207.669 C 152.451 207.669 148.393 189.918 148.393 189.918 C 148.393 189.918 143.829 174.704 141.293 173.182 C 138.757 171.66 134.193 162.531 128.107 161.517 Z" opacity="0.1" style=""/>
  <path d="M 128.107 160.503 C 128.107 160.503 110.356 155.938 107.82 181.804 C 105.284 207.669 109.849 210.712 102.241 226.434 C 94.633 242.156 153.972 228.463 153.972 228.463 C 153.972 228.463 150.929 224.912 141.293 226.434 L 136.729 212.741 C 136.729 212.741 135.207 206.655 143.829 206.655 C 152.451 206.655 148.393 188.904 148.393 188.904 C 148.393 188.904 143.829 173.689 141.293 172.168 C 138.757 170.646 134.193 161.517 128.107 160.503 Z" fill="#eb6475" style=""/>
  <path d="M 145.858 197.019 C 145.858 197.019 182.88 201.076 188.967 200.061 C 188.967 200.061 216.151 196.714 209.253 203.612 C 208.746 204.119 190.995 208.176 188.967 207.669 C 186.937 207.162 143.829 207.669 143.829 207.669 L 143.322 202.597 Z" fill="#f8bdc5" style=""/>
  <path d="M 117.456 184.339 L 144.336 208.684 C 144.336 208.684 149.407 198.54 150.929 198.54 C 152.451 198.54 132.671 168.617 132.671 168.617 C 132.671 168.617 127.6 162.531 124.556 165.575 C 121.513 168.617 112.384 166.589 117.456 184.339 Z" opacity="0.1" style=""/>
  <path d="M 116.949 183.325 L 143.829 207.669 C 143.829 207.669 148.9 197.526 150.422 197.526 C 151.943 197.526 132.164 167.603 132.164 167.603 C 132.164 167.603 127.092 161.517 124.049 164.56 C 121.007 167.603 111.878 165.575 116.949 183.325 Z" fill="#eb6475" style=""/>
  <circle cx="138.757" cy="143.766" r="16.737" fill="#f8bdc5" style=""/>
  <path d="M 153.414 139.562 C 156.254 140.683 159.734 139.339 161.407 136.788 C 163.081 134.237 163.03 130.762 161.62 128.055 C 160.21 125.346 157.604 123.378 154.728 122.354 C 152.983 121.735 151.041 121.38 149.702 120.102 C 148.855 119.296 148.353 118.205 147.719 117.221 C 145.35 113.529 141.126 111.348 136.83 110.491 C 132.534 109.634 128.091 109.938 123.72 110.243 C 122.086 110.359 120.17 110.654 119.429 112.114 C 118.876 113.209 119.236 114.523 119.165 115.745 C 118.937 119.635 114.601 121.791 110.812 122.724 C 107.024 123.657 102.632 124.534 100.786 127.963 C 99.132 131.042 100.314 134.774 100.826 138.233 C 101.702 144.275 100.393 150.431 97.134 155.594 C 95.476 158.195 93.34 160.508 92.027 163.302 C 90.574 166.425 90.237 169.952 91.073 173.294 C 91.322 174.272 91.672 175.266 91.499 176.26 C 91.3 177.077 90.908 177.834 90.353 178.466 C 85.858 184.218 79.138 187.796 71.857 188.315 C 72.435 190.492 74.54 191.866 76.543 192.88 C 79.962 194.638 83.564 196.013 87.285 196.978 C 89.785 197.628 92.402 198.089 94.948 197.647 C 97.494 197.207 99.974 195.71 101.034 193.347 C 101.643 191.977 101.734 190.43 102.272 189.031 C 103.484 185.892 106.714 183.995 108.449 181.109 C 110.107 178.35 110.752 178.026 111.173 174.84 C 111.594 171.655 112.521 168.217 115.138 166.345 C 117.877 164.383 121.731 164.758 124.774 166.264 C 127.818 167.771 129.699 167.182 132.24 169.393 C 136.698 173.265 141.686 176.48 147.054 178.938 C 146.547 174.516 145.73 169.581 142.14 166.949 C 141.126 166.193 139.842 165.615 139.305 164.459 C 138.448 162.618 139.913 160.371 139.249 158.449 C 138.585 156.527 136.059 155.816 134.938 154.072 C 133.984 152.591 134.243 150.577 135.136 149.056 C 136.028 147.535 137.438 146.409 138.843 145.343 C 140.091 144.401 141.356 143.479 142.637 142.58 C 143.795 141.845 144.834 140.938 145.721 139.891 C 146.228 139.197 146.563 137.675 147.268 137.184 C 149.042 135.956 151.771 138.918 153.414 139.562 Z" opacity="0.1" style=""/>
  <path d="M 152.907 139.055 C 155.747 140.175 159.226 138.831 160.9 136.28 C 162.573 133.729 162.522 130.256 161.113 127.547 C 159.703 124.839 157.096 122.871 154.22 121.847 C 152.476 121.228 150.533 120.873 149.195 119.595 C 148.347 118.789 147.845 117.698 147.212 116.714 C 144.843 113.022 140.618 110.841 136.323 109.984 C 132.027 109.127 127.584 109.432 123.212 109.735 C 121.579 109.852 119.662 110.146 118.922 111.607 C 118.369 112.703 118.729 114.016 118.658 115.238 C 118.43 119.128 114.094 121.284 110.305 122.217 C 106.516 123.15 102.125 124.028 100.279 127.456 C 98.625 130.534 99.807 134.267 100.319 137.726 C 101.195 143.768 99.886 149.924 96.627 155.086 C 94.968 157.688 92.834 160.001 91.52 162.795 C 90.066 165.918 89.73 169.445 90.566 172.786 C 90.815 173.765 91.165 174.759 90.992 175.753 C 90.794 176.57 90.4 177.327 89.846 177.96 C 85.351 183.711 78.631 187.29 71.35 187.809 C 71.928 189.984 74.033 191.359 76.036 192.373 C 79.454 194.131 83.057 195.505 86.777 196.471 C 89.278 197.12 91.895 197.581 94.441 197.141 C 96.987 196.699 99.467 195.203 100.527 192.84 C 101.136 191.47 101.227 189.924 101.764 188.524 C 102.976 185.384 106.207 183.487 107.942 180.602 C 109.6 177.843 110.244 177.518 110.665 174.333 C 111.086 171.148 112.015 167.709 114.631 165.838 C 117.37 163.875 121.225 164.251 124.267 165.757 C 127.31 167.263 129.192 166.675 131.733 168.886 C 136.19 172.758 141.179 175.973 146.547 178.431 C 146.04 174.009 145.223 169.074 141.632 166.442 C 140.618 165.686 139.335 165.108 138.797 163.951 C 137.94 162.11 139.406 159.864 138.742 157.942 C 138.077 156.019 135.552 155.309 134.431 153.564 C 133.477 152.084 133.736 150.071 134.629 148.549 C 135.522 147.027 136.932 145.901 138.336 144.837 C 139.584 143.893 140.848 142.972 142.13 142.072 C 143.287 141.338 144.327 140.431 145.213 139.384 C 145.721 138.69 146.055 137.168 146.76 136.676 C 148.535 135.449 151.263 138.41 152.907 139.055 Z" fill="#916168" style=""/>
  <g opacity="0.1" transform="matrix(0.507165, 0, 0, 0.507165, 22.742159, 11.269263)" style="">
    <path d="M475.72,678.56a34.56,34.56,0,0,1,1.14-7.88l-.5.17A34.82,34.82,0,0,0,475.72,678.56Z" transform="translate(-148.11 -121.43)" fill="#fff"/>
    <path d="M480.86,715.68c-8,.47-33-11-38-17a5.33,5.33,0,0,1-1.16-2.84,6.28,6.28,0,0,0,1.16,4.84c5,6,30,17.47,38,17,8.5-.5,37,1,38-12a1.62,1.62,0,0,0-.14-1.06C516.43,716.6,489.15,715.19,480.86,715.68Z" transform="translate(-148.11 -121.43)" fill="#fff"/>
  </g>
  <title>tasting</title>
  <path d="M 221.139 196.351 C 221.313 195.483 221.273 194.221 219.854 193.605 C 220.613 192.386 220.256 191.524 219.571 191.219 C 219.566 190.901 219.483 190.256 218.924 189.909 C 218.998 189.309 219.118 186.924 216.423 186.658 C 216.107 186.112 215.118 184.634 213.505 184.225 L 213.505 182.086 C 213.117 182.902 210.673 183.368 210.673 183.368 C 207.872 183.759 207.244 185.342 207.102 186.033 C 206.741 186.044 206.424 186.091 206.246 186.203 C 205.658 186.57 201.466 187.666 201.795 190.57 C 201.737 190.589 201.682 190.609 201.626 190.627 C 201.626 190.627 199.333 192.457 199.95 193.912 L 199.719 193.929 C 199.719 193.929 198.389 194.751 198.798 196.37 C 198.688 196.49 198.645 196.657 198.682 196.815 L 201.844 207.352 C 201.864 207.425 201.909 207.49 201.971 207.534 C 202.114 207.634 202.41 207.832 202.842 208.073 L 202.846 208.089 L 202.865 208.086 C 203.358 208.357 203.865 208.599 204.386 208.811 L 204.386 208.823 L 204.405 208.819 C 204.772 208.968 205.174 209.114 205.608 209.248 L 205.608 209.257 L 205.627 209.257 C 206.029 209.38 206.458 209.494 206.911 209.59 L 206.911 209.595 L 206.931 209.595 C 207.356 209.685 207.805 209.759 208.273 209.812 L 208.273 209.812 L 208.291 209.812 C 208.867 209.876 209.446 209.906 210.026 209.9 L 210.026 209.9 L 210.064 209.9 L 210.064 209.9 C 210.606 209.892 211.148 209.854 211.686 209.784 L 211.705 209.784 L 211.705 209.781 C 212.14 209.724 212.585 209.646 213.04 209.544 L 213.035 209.59 L 213.074 209.593 L 213.08 209.536 C 213.533 209.432 213.995 209.303 214.467 209.149 L 214.486 209.149 L 214.486 209.14 C 214.878 209.01 215.274 208.861 215.676 208.692 L 215.695 208.696 L 215.695 208.683 C 216.161 208.486 216.633 208.26 217.112 208.006 L 217.13 208.01 L 217.134 207.994 C 217.404 207.85 217.676 207.695 217.949 207.531 C 218.022 207.488 218.076 207.419 218.1 207.337 L 221.251 196.792 C 221.288 196.634 221.245 196.468 221.135 196.349 Z" fill="url(#de64225e-aed0-4729-9589-fefa50377364)" style=""/>
  <path d="M 216.295 187.194 C 216.295 187.194 214.873 184.275 212.178 184.574 C 209.483 184.874 212.366 187.643 212.366 187.643 C 212.366 187.643 215.66 187.905 216.295 187.194 Z" fill="#ff718e" style=""/>
  <path d="M 216.295 187.194 C 216.295 187.194 214.873 184.275 212.178 184.574 C 209.483 184.874 212.366 187.643 212.366 187.643 C 212.366 187.643 215.66 187.905 216.295 187.194 Z" opacity="0.1" style=""/>
  <path d="M 207.164 186.707 C 207.164 186.707 207.164 186.669 207.171 186.602 C 207.219 186.134 207.602 184.251 210.644 183.827 C 210.644 183.827 213.002 183.378 213.376 182.592 L 213.376 184.987 C 213.376 184.987 212.889 186.672 210.457 187.233 C 208.025 187.794 207.164 186.707 207.164 186.707 Z" fill="#ff718e" style=""/>
  <path d="M 200.09 194.005 C 200.09 194.005 198.329 195.09 199.566 197.223 C 200.803 199.356 220.45 197.223 220.45 197.223 C 220.45 197.223 221.721 194.604 219.439 193.668 C 217.157 192.732 200.09 194.005 200.09 194.005 Z" fill="#784f69" style=""/>
  <path d="M 219.24 191.467 C 219.235 191.161 219.155 190.542 218.617 190.206 C 218.688 189.628 218.805 187.329 216.207 187.072 C 215.902 186.546 214.949 185.119 213.394 184.728 L 213.394 182.665 C 213.021 183.451 210.663 183.9 210.663 183.9 C 207.964 184.278 207.358 185.802 207.222 186.469 C 206.875 186.479 206.568 186.526 206.396 186.632 C 205.83 186.986 201.79 188.041 202.104 190.84 C 202.05 190.859 201.996 190.878 201.942 190.898 C 201.942 190.898 198.757 193.441 201.067 194.846 L 201.067 194.846 C 201.067 194.846 202.13 196.886 205.236 195.314 L 205.246 195.308 C 206.416 195.644 209.551 196.348 211.412 194.94 L 211.545 194.838 C 212.285 195.279 214.038 196.086 215.528 194.94 L 215.541 194.93 C 216.119 195.474 217.295 196.166 218.709 194.752 C 220.402 193.061 220.073 191.841 219.24 191.467 Z" opacity="0.1" style=""/>
  <path d="M 215.135 194.417 C 215.135 194.417 216.67 196.699 218.69 194.678 C 220.712 192.658 219.851 191.31 218.69 191.272 C 217.53 191.235 215.135 194.417 215.135 194.417 Z" fill="#ff718e" style=""/>
  <path d="M 215.135 194.417 C 215.135 194.417 216.67 196.699 218.69 194.678 C 220.712 192.658 219.851 191.31 218.69 191.272 C 217.53 191.235 215.135 194.417 215.135 194.417 Z" opacity="0.15" style=""/>
  <path d="M 219.215 191.573 C 219.215 191.573 219.589 188.393 214.764 190.824 C 209.939 193.255 211.171 194.529 211.171 194.529 C 211.171 194.529 213.567 196.363 215.512 194.866 C 217.458 193.369 218.653 192.92 219.215 191.573 Z" fill="#ff718e" style=""/>
  <path d="M 219.215 191.573 C 219.215 191.573 219.589 188.393 214.764 190.824 C 209.939 193.255 211.171 194.529 211.171 194.529 C 211.171 194.529 213.567 196.363 215.512 194.866 C 217.458 193.369 218.653 192.92 219.215 191.573 Z" opacity="0.1" style=""/>
  <path d="M 215.51 190.599 C 215.51 190.599 213.676 189.328 210.869 190.599 C 208.063 191.871 204.769 195.09 204.769 195.09 C 204.769 195.09 209.073 196.627 211.393 194.866 C 213.713 193.104 215.397 191.796 215.51 190.599 Z" fill="#ff718e" style=""/>
  <path d="M 215.51 190.599 C 215.51 190.599 213.676 189.328 210.869 190.599 C 208.063 191.871 204.769 195.09 204.769 195.09 C 204.769 195.09 209.073 196.627 211.393 194.866 C 213.713 193.104 215.397 191.796 215.51 190.599 Z" opacity="0.07" style=""/>
  <path d="M 211.73 190.412 C 211.73 190.412 207.987 189.889 206.265 190.936 C 204.544 191.983 201.046 194.773 201.046 194.773 C 201.046 194.773 202.109 196.812 205.215 195.24 C 205.218 195.239 211.655 191.235 211.73 190.412 Z" fill="#ff718e" style=""/>
  <path d="M 211.73 190.412 C 211.73 190.412 207.987 189.889 206.265 190.936 C 204.544 191.983 201.046 194.773 201.046 194.773 C 201.046 194.773 202.109 196.812 205.215 195.24 C 205.218 195.239 211.655 191.235 211.73 190.412 Z" opacity="0.03" style=""/>
  <path d="M 201.924 190.824 C 201.924 190.824 198.593 193.483 201.213 194.866 C 201.213 194.866 206.752 191.236 206.865 190.824 C 206.865 190.824 204.283 189.926 201.924 190.824 Z" fill="#ff718e" style=""/>
  <path d="M 209.185 186.557 C 209.185 186.557 206.977 186.183 206.378 186.557 C 205.779 186.931 201.288 188.092 202.186 191.273 L 203.532 190.788 C 203.532 190.788 206.116 187.53 209.185 186.557 Z" fill="#ff718e" style=""/>
  <path d="M 209.185 186.557 C 209.185 186.557 206.977 186.183 206.378 186.557 C 205.779 186.931 201.288 188.092 202.186 191.273 L 203.532 190.788 C 203.532 190.788 206.116 187.53 209.185 186.557 Z" opacity="0.1" style=""/>
  <path d="M 212.852 187.044 C 212.852 187.044 211.281 185.585 207.8 186.932 C 204.319 188.28 203.159 190.712 203.159 190.712 L 208.38 191.105 C 208.38 191.105 211.318 186.894 212.852 187.044 Z" fill="#ff718e" style=""/>
  <path d="M 212.852 187.044 C 212.852 187.044 211.281 185.585 207.8 186.932 C 204.319 188.28 203.159 190.712 203.159 190.712 L 208.38 191.105 C 208.38 191.105 211.318 186.894 212.852 187.044 Z" opacity="0.07" style=""/>
  <path d="M 215.285 187.231 C 215.285 187.231 212.777 186.408 210.834 187.53 C 208.891 188.653 208.175 190.861 208.175 190.861 L 211.281 190.711 C 211.281 190.711 213.713 186.894 215.285 187.231 Z" fill="#ff718e" style=""/>
  <path d="M 215.285 187.231 C 215.285 187.231 212.777 186.408 210.834 187.53 C 208.891 188.653 208.175 190.861 208.175 190.861 L 211.281 190.711 C 211.281 190.711 213.713 186.894 215.285 187.231 Z" opacity="0.03" style=""/>
  <path d="M 218.578 190.263 C 218.578 190.263 219.439 185.884 213.751 187.231 C 213.751 187.231 210.518 190.076 211.424 190.861 C 212.329 191.647 218.578 190.263 218.578 190.263 Z" fill="#ff718e" style=""/>
  <path d="M 199.088 196.712 L 202.135 206.866 C 202.156 206.936 202.2 206.998 202.26 207.04 C 203.11 207.635 209.653 211.855 217.664 207.04 C 217.735 206.998 217.786 206.931 217.809 206.852 L 220.845 196.691 C 220.918 196.449 220.701 196.219 220.455 196.278 C 220.455 196.278 220.453 196.279 220.452 196.279 L 219.133 196.609 C 219.087 196.62 219.04 196.621 218.994 196.613 L 217.754 196.382 C 217.681 196.368 217.606 196.38 217.54 196.415 L 216.069 197.2 C 215.998 197.237 215.915 197.248 215.837 197.229 L 214.254 196.835 C 214.194 196.82 214.132 196.822 214.073 196.842 L 212.234 197.443 C 212.151 197.471 212.06 197.463 211.983 197.424 L 210.764 196.801 C 210.687 196.761 210.598 196.753 210.516 196.78 L 208.945 197.281 C 208.905 197.293 208.864 197.298 208.823 197.295 L 207.31 197.189 C 207.288 197.188 207.265 197.184 207.243 197.178 L 206.043 196.835 C 205.992 196.82 205.939 196.819 205.888 196.829 L 204.225 197.167 C 204.163 197.18 204.098 197.174 204.039 197.151 L 202.421 196.51 C 202.364 196.487 202.302 196.481 202.242 196.492 L 200.953 196.723 C 200.902 196.732 200.848 196.729 200.797 196.713 L 199.499 196.305 C 199.258 196.231 199.027 196.445 199.083 196.691 C 199.085 196.698 199.087 196.705 199.088 196.712 Z" opacity="0.1" style=""/>
  <path d="M 199.088 196.786 L 202.135 206.941 C 202.156 207.011 202.2 207.072 202.26 207.114 C 203.11 207.709 209.653 211.929 217.664 207.114 C 217.735 207.072 217.786 207.005 217.809 206.927 L 220.845 196.765 C 220.918 196.523 220.701 196.294 220.455 196.352 C 220.455 196.353 220.453 196.353 220.452 196.353 L 219.134 196.685 C 219.089 196.696 219.041 196.698 218.995 196.69 L 217.755 196.458 C 217.682 196.445 217.607 196.456 217.542 196.491 L 216.07 197.276 C 215.999 197.314 215.917 197.324 215.838 197.305 L 214.256 196.91 C 214.196 196.894 214.133 196.897 214.075 196.916 L 212.236 197.518 C 212.153 197.545 212.062 197.538 211.984 197.498 L 210.766 196.874 C 210.689 196.834 210.599 196.826 210.517 196.853 L 208.947 197.354 C 208.907 197.366 208.866 197.372 208.824 197.369 L 207.31 197.263 C 207.288 197.261 207.265 197.257 207.243 197.251 L 206.043 196.908 C 205.992 196.894 205.939 196.892 205.888 196.903 L 204.225 197.242 C 204.163 197.254 204.098 197.248 204.039 197.225 L 202.421 196.584 C 202.364 196.562 202.302 196.556 202.242 196.566 L 200.953 196.798 C 200.902 196.807 200.848 196.803 200.797 196.788 L 199.499 196.38 C 199.258 196.305 199.027 196.52 199.083 196.766 C 199.085 196.773 199.087 196.78 199.088 196.786 Z" fill="#4d4981" style=""/>
  <polygon points="202.43 193.166 202.112 193.055 201.933 192.769 202.728 191.774 203.046 191.886 203.225 192.172 202.43 193.166" fill="#fff" opacity="0.5" style=""/>
  <polygon points="217.513 194.851 217.194 194.739 217.016 194.454 217.809 193.459 218.128 193.57 218.307 193.856 217.513 194.851" fill="#fff" opacity="0.5" style=""/>
  <polygon points="210.889 189.423 210.57 189.313 210.392 189.027 211.186 188.032 211.505 188.143 211.682 188.429 210.889 189.423" fill="#fff" opacity="0.5" style=""/>
  <polygon points="212.677 193.08 212.369 193.216 212.042 193.13 211.942 191.861 212.251 191.725 212.577 191.811 212.677 193.08" fill="#fff" opacity="0.5" style=""/>
  <polygon points="207.486 189.966 207.273 190.227 206.943 190.298 206.28 189.212 206.493 188.95 206.823 188.88 207.486 189.966" fill="#fff" opacity="0.5" style=""/>
  <polygon points="207.112 193.034 206.899 193.296 206.569 193.366 205.905 192.28 206.118 192.019 206.448 191.948 207.112 193.034" fill="#fff" opacity="0.5" style=""/>
  <polygon points="216.265 193.333 216.021 193.566 215.684 193.593 215.165 192.431 215.41 192.199 215.746 192.171 216.265 193.333" fill="#fff" opacity="0.5" style=""/>
  <polygon points="214.597 189.352 214.68 189.024 214.95 188.822 216.01 189.526 215.927 189.853 215.658 190.056 214.597 189.352" fill="#fff" opacity="0.5" style=""/>
  <polygon points="203.329 189.836 203.01 189.725 202.831 189.438 203.625 188.444 203.944 188.555 204.123 188.841 203.329 189.836" fill="#fd6f8d" opacity="0.5" style=""/>
  <polygon points="207.339 187.966 207.261 187.638 207.407 187.334 208.672 187.468 208.75 187.797 208.604 188.101 207.339 187.966" fill="#fd6f8d" opacity="0.5" style=""/>
  <polygon points="213.471 186.1 213.534 185.769 213.791 185.551 214.891 186.191 214.828 186.522 214.571 186.741 213.471 186.1" fill="#fd6f8d" opacity="0.5" style=""/>
  <polygon points="211.019 184.429 211.348 184.354 211.651 184.502 211.504 185.767 211.175 185.841 210.872 185.693 211.019 184.429" fill="#fd6f8d" opacity="0.5" style=""/>
  <polygon points="208.761 194.404 208.683 194.075 208.829 193.771 210.094 193.905 210.172 194.234 210.027 194.538 208.761 194.404" fill="#fd6f8d" opacity="0.5" style=""/>
  <polygon points="204.083 194.644 203.884 194.371 203.898 194.035 205.117 193.666 205.317 193.938 205.301 194.275 204.083 194.644" fill="#fd6f8d" opacity="0.5" style=""/>
  <polygon points="217.181 192.389 216.904 192.197 216.81 191.872 217.843 191.13 218.12 191.322 218.214 191.646 217.181 192.389" fill="#fd6f8d" opacity="0.5" style=""/>
  <polygon points="208.423 192.651 208.147 192.459 208.052 192.135 209.085 191.392 209.362 191.584 209.456 191.908 208.423 192.651" fill="#fd6f8d" opacity="0.5" style=""/>
  <path d="M 202.244 196.492 L 200.956 196.723 C 200.904 196.732 200.85 196.729 200.8 196.713 L 200.778 196.706 L 203.123 207.573 L 200.778 196.706 L 199.501 196.305 C 199.26 196.23 199.029 196.444 199.084 196.69 C 199.085 196.696 199.087 196.703 199.089 196.709 L 202.136 206.864 C 202.157 206.934 202.201 206.995 202.261 207.038 C 202.527 207.224 203.354 207.767 204.61 208.275 L 202.338 196.483 C 202.307 196.482 202.275 196.484 202.244 196.492 Z" opacity="0.1" style=""/>
  <path d="M 220.453 196.28 L 219.134 196.609 C 219.089 196.621 219.041 196.623 218.995 196.614 L 217.755 196.383 C 217.717 196.376 217.678 196.376 217.64 196.383 L 215.472 208.157 L 217.639 196.383 C 217.605 196.389 217.572 196.401 217.542 196.417 L 216.07 197.202 C 216.003 197.238 215.925 197.249 215.851 197.234 L 214.306 208.596 C 215.187 208.303 216.041 207.936 216.858 207.497 L 219.222 196.587 L 216.858 207.494 C 217.125 207.351 217.395 207.199 217.667 207.036 C 217.737 206.994 217.788 206.927 217.811 206.849 L 220.848 196.687 C 220.916 196.445 220.697 196.219 220.453 196.28 Z" opacity="0.1" style=""/>
  <path d="M 215.837 197.23 L 214.254 196.835 C 214.224 196.827 214.192 196.824 214.161 196.826 L 212.953 208.973 C 213.397 208.872 213.848 208.747 214.308 208.596 L 215.853 197.234 Z" fill="#4d4981" style=""/>
  <g opacity="0.5" transform="matrix(0.057804, 0, 0, 0.057804, 185.226318, 168.265274)" style="">
    <rect x="447.32" y="548.5" width="0.65" height="192.29" transform="translate(-284.25 51.59) rotate(-12.18)" fill="#fff"/>
    <rect x="499.39" y="557.95" width="0.65" height="201.19" transform="translate(-247.01 20.51) rotate(-8.19)" fill="#fff"/>
    <rect x="473.66" y="544.79" width="0.65" height="207.96" transform="translate(-272.5 44.02) rotate(-10.9)" fill="#fff"/>
    <rect x="526.13" y="552.08" width="0.65" height="212.05" transform="translate(-214.22 -8.45) rotate(-5.05)" fill="#fff"/>
    <rect x="555.12" y="559.81" width="0.65" height="207.61" transform="translate(-177.58 -40.75) rotate(-1.68)" fill="#fff"/>
    <rect x="586.67" y="554.95" width="0.65" height="213.91" transform="translate(-162.63 -53.52) rotate(-0.37)" fill="#fff"/>
    <rect x="517.7" y="665.22" width="202.95" height="0.65" transform="translate(-229.51 1199.57) rotate(-87.65)" fill="#fff"/>
    <rect x="542.25" y="657.79" width="212.28" height="0.65" transform="translate(-229.42 1180.31) rotate(-84.28)" fill="#fff"/>
    <rect x="574.78" y="656.84" width="200.2" height="0.65" transform="matrix(0.13, -0.99, 0.99, 0.13, -225.62, 1179.91)" fill="#fff"/>
    <rect x="596.61" y="646.43" width="207.48" height="0.65" transform="translate(-221.08 1160.76) rotate(-79.55)" fill="#fff"/>
    <rect x="629.42" y="642.64" width="193.13" height="0.65" transform="translate(-214.09 1159.48) rotate(-77.81)" fill="#fff"/>
  </g>
  <path d="M 197.799 184.05 C 197.799 184.05 197.33 183.894 197.33 183.504" opacity="0.1" style=""/>
  <g opacity="0.5" transform="matrix(0.273751, 0, 0, 0.273751, 567.762634, 220.308273)" style=""/>
  <g opacity="0.1" transform="matrix(0.057804, 0, 0, 0.057804, 185.226318, 168.265274)" style="">
    <path d="M970.19,511l-.16.33c-.05-.33-.1-.68-.13-1A7.11,7.11,0,0,0,970.19,511Z" transform="translate(-158.33 -57.35)"/>
    <path d="M927.91,413.75a9.47,9.47,0,0,0-1.45-3.09l66.24-10.29s-.39,1.25-1.06,3.48Z" transform="translate(-158.33 -57.35)"/>
  </g>
  <ellipse cx="937.28" cy="288.96" rx="0.842" ry="0.462" transform="matrix(0.544639, -0.838671, 0.838671, 0.544639, -522.570284, 810.340104)" fill="#e6e6e6" style=""/>
  <path d="M 223.382 195.633 C 223.45 195.633 223.491 195.561 223.458 195.503 C 223.442 195.476 223.413 195.46 223.382 195.46 C 223.316 195.46 223.274 195.532 223.308 195.59 C 223.323 195.617 223.352 195.633 223.382 195.633 Z" style=""/>
  <path d="M 289.35 195.725 C 289.524 194.857 289.484 193.595 288.065 192.979 C 288.824 191.76 288.467 190.898 287.782 190.593 C 287.777 190.275 287.694 189.63 287.135 189.283 C 287.209 188.683 287.329 186.298 284.634 186.032 C 284.318 185.486 283.329 184.008 281.716 183.599 L 281.716 181.46 C 281.328 182.276 278.884 182.742 278.884 182.742 C 276.083 183.133 275.455 184.716 275.313 185.407 C 274.952 185.418 274.635 185.465 274.457 185.577 C 273.869 185.944 269.677 187.04 270.006 189.944 C 269.948 189.963 269.893 189.983 269.837 190.001 C 269.837 190.001 267.544 191.831 268.161 193.286 L 267.93 193.303 C 267.93 193.303 266.6 194.125 267.009 195.744 C 266.899 195.864 266.856 196.031 266.893 196.189 L 270.055 206.726 C 270.075 206.799 270.12 206.864 270.182 206.908 C 270.325 207.008 270.621 207.206 271.053 207.447 L 271.057 207.463 L 271.076 207.46 C 271.569 207.731 272.076 207.973 272.597 208.185 L 272.597 208.197 L 272.616 208.193 C 272.983 208.342 273.385 208.488 273.819 208.622 L 273.819 208.631 L 273.838 208.631 C 274.24 208.754 274.669 208.868 275.122 208.964 L 275.122 208.969 L 275.142 208.969 C 275.567 209.059 276.016 209.133 276.484 209.186 L 276.484 209.186 L 276.502 209.186 C 277.078 209.25 277.657 209.28 278.237 209.274 L 278.237 209.274 L 278.275 209.274 L 278.275 209.274 C 278.817 209.266 279.359 209.228 279.897 209.158 L 279.916 209.158 L 279.916 209.155 C 280.351 209.098 280.796 209.02 281.251 208.918 L 281.246 208.964 L 281.285 208.967 L 281.291 208.91 C 281.744 208.806 282.206 208.677 282.678 208.523 L 282.697 208.523 L 282.697 208.514 C 283.089 208.384 283.485 208.235 283.887 208.066 L 283.906 208.07 L 283.906 208.057 C 284.372 207.86 284.844 207.634 285.323 207.38 L 285.341 207.384 L 285.345 207.368 C 285.615 207.224 285.887 207.069 286.16 206.905 C 286.233 206.862 286.287 206.793 286.311 206.711 L 289.462 196.166 C 289.499 196.008 289.456 195.842 289.346 195.723 Z" fill="url(#gradient-1)" style=""/>
  <path d="M 284.506 186.568 C 284.506 186.568 283.084 183.649 280.389 183.948 C 277.694 184.248 280.577 187.017 280.577 187.017 C 280.577 187.017 283.871 187.279 284.506 186.568 Z" fill="#ff718e" style=""/>
  <path d="M 284.506 186.568 C 284.506 186.568 283.084 183.649 280.389 183.948 C 277.694 184.248 280.577 187.017 280.577 187.017 C 280.577 187.017 283.871 187.279 284.506 186.568 Z" opacity="0.1" style=""/>
  <path d="M 275.375 186.081 C 275.375 186.081 275.375 186.043 275.382 185.976 C 275.43 185.508 275.813 183.625 278.855 183.201 C 278.855 183.201 281.213 182.752 281.587 181.966 L 281.587 184.361 C 281.587 184.361 281.1 186.046 278.668 186.607 C 276.236 187.168 275.375 186.081 275.375 186.081 Z" fill="#ff718e" style=""/>
  <path d="M 268.301 193.379 C 268.301 193.379 266.54 194.464 267.777 196.597 C 269.014 198.73 288.661 196.597 288.661 196.597 C 288.661 196.597 289.932 193.978 287.65 193.042 C 285.368 192.106 268.301 193.379 268.301 193.379 Z" fill="#784f69" style=""/>
  <path d="M 287.451 190.841 C 287.446 190.535 287.366 189.916 286.828 189.58 C 286.899 189.002 287.016 186.703 284.418 186.446 C 284.113 185.92 283.16 184.493 281.605 184.102 L 281.605 182.039 C 281.232 182.825 278.874 183.274 278.874 183.274 C 276.175 183.652 275.569 185.176 275.433 185.843 C 275.086 185.853 274.779 185.9 274.607 186.006 C 274.041 186.36 270.001 187.415 270.315 190.214 C 270.261 190.233 270.207 190.252 270.153 190.272 C 270.153 190.272 266.968 192.815 269.278 194.22 L 269.278 194.22 C 269.278 194.22 270.341 196.26 273.447 194.688 L 273.457 194.682 C 274.627 195.018 277.762 195.722 279.623 194.314 L 279.756 194.212 C 280.496 194.653 282.249 195.46 283.739 194.314 L 283.752 194.304 C 284.33 194.848 285.506 195.54 286.92 194.126 C 288.613 192.435 288.284 191.215 287.451 190.841 Z" opacity="0.1" style=""/>
  <path d="M 283.346 193.791 C 283.346 193.791 284.881 196.073 286.901 194.052 C 288.923 192.032 288.062 190.684 286.901 190.646 C 285.741 190.609 283.346 193.791 283.346 193.791 Z" fill="#ff718e" style=""/>
  <path d="M 283.346 193.791 C 283.346 193.791 284.881 196.073 286.901 194.052 C 288.923 192.032 288.062 190.684 286.901 190.646 C 285.741 190.609 283.346 193.791 283.346 193.791 Z" opacity="0.15" style=""/>
  <path d="M 287.426 190.947 C 287.426 190.947 287.8 187.767 282.975 190.198 C 278.15 192.629 279.382 193.903 279.382 193.903 C 279.382 193.903 281.778 195.737 283.723 194.24 C 285.669 192.743 286.864 192.294 287.426 190.947 Z" fill="#ff718e" style=""/>
  <path d="M 287.426 190.947 C 287.426 190.947 287.8 187.767 282.975 190.198 C 278.15 192.629 279.382 193.903 279.382 193.903 C 279.382 193.903 281.778 195.737 283.723 194.24 C 285.669 192.743 286.864 192.294 287.426 190.947 Z" opacity="0.1" style=""/>
  <path d="M 283.721 189.973 C 283.721 189.973 281.887 188.702 279.08 189.973 C 276.274 191.245 272.98 194.464 272.98 194.464 C 272.98 194.464 277.284 196.001 279.604 194.24 C 281.924 192.478 283.608 191.17 283.721 189.973 Z" fill="#ff718e" style=""/>
  <path d="M 283.721 189.973 C 283.721 189.973 281.887 188.702 279.08 189.973 C 276.274 191.245 272.98 194.464 272.98 194.464 C 272.98 194.464 277.284 196.001 279.604 194.24 C 281.924 192.478 283.608 191.17 283.721 189.973 Z" opacity="0.07" style=""/>
  <path d="M 279.941 189.786 C 279.941 189.786 276.198 189.263 274.476 190.31 C 272.755 191.357 269.257 194.147 269.257 194.147 C 269.257 194.147 270.32 196.186 273.426 194.614 C 273.429 194.613 279.866 190.609 279.941 189.786 Z" fill="#ff718e" style=""/>
  <path d="M 279.941 189.786 C 279.941 189.786 276.198 189.263 274.476 190.31 C 272.755 191.357 269.257 194.147 269.257 194.147 C 269.257 194.147 270.32 196.186 273.426 194.614 C 273.429 194.613 279.866 190.609 279.941 189.786 Z" opacity="0.03" style=""/>
  <path d="M 270.135 190.198 C 270.135 190.198 266.804 192.857 269.424 194.24 C 269.424 194.24 274.963 190.61 275.076 190.198 C 275.076 190.198 272.494 189.3 270.135 190.198 Z" fill="#ff718e" style=""/>
  <path d="M 277.396 185.931 C 277.396 185.931 275.188 185.557 274.589 185.931 C 273.99 186.305 269.499 187.466 270.397 190.647 L 271.743 190.162 C 271.743 190.162 274.327 186.904 277.396 185.931 Z" fill="#ff718e" style=""/>
  <path d="M 277.396 185.931 C 277.396 185.931 275.188 185.557 274.589 185.931 C 273.99 186.305 269.499 187.466 270.397 190.647 L 271.743 190.162 C 271.743 190.162 274.327 186.904 277.396 185.931 Z" opacity="0.1" style=""/>
  <path d="M 281.063 186.418 C 281.063 186.418 279.492 184.959 276.011 186.306 C 272.53 187.654 271.37 190.086 271.37 190.086 L 276.591 190.479 C 276.591 190.479 279.529 186.268 281.063 186.418 Z" fill="#ff718e" style=""/>
  <path d="M 281.063 186.418 C 281.063 186.418 279.492 184.959 276.011 186.306 C 272.53 187.654 271.37 190.086 271.37 190.086 L 276.591 190.479 C 276.591 190.479 279.529 186.268 281.063 186.418 Z" opacity="0.07" style=""/>
  <path d="M 283.496 186.605 C 283.496 186.605 280.988 185.782 279.045 186.904 C 277.102 188.027 276.386 190.235 276.386 190.235 L 279.492 190.085 C 279.492 190.085 281.924 186.268 283.496 186.605 Z" fill="#ff718e" style=""/>
  <path d="M 283.496 186.605 C 283.496 186.605 280.988 185.782 279.045 186.904 C 277.102 188.027 276.386 190.235 276.386 190.235 L 279.492 190.085 C 279.492 190.085 281.924 186.268 283.496 186.605 Z" opacity="0.03" style=""/>
  <path d="M 286.789 189.637 C 286.789 189.637 287.65 185.258 281.962 186.605 C 281.962 186.605 278.729 189.45 279.635 190.235 C 280.54 191.021 286.789 189.637 286.789 189.637 Z" fill="#ff718e" style=""/>
  <path d="M 267.299 196.086 L 270.346 206.24 C 270.367 206.31 270.411 206.372 270.471 206.414 C 271.321 207.009 277.864 211.229 285.875 206.414 C 285.946 206.372 285.997 206.305 286.02 206.226 L 289.056 196.065 C 289.129 195.823 288.912 195.593 288.666 195.652 C 288.666 195.652 288.664 195.653 288.663 195.653 L 287.344 195.983 C 287.298 195.994 287.251 195.995 287.205 195.987 L 285.965 195.756 C 285.892 195.742 285.817 195.754 285.751 195.789 L 284.28 196.574 C 284.209 196.611 284.126 196.622 284.048 196.603 L 282.465 196.209 C 282.405 196.194 282.343 196.196 282.284 196.216 L 280.445 196.817 C 280.362 196.845 280.271 196.837 280.194 196.798 L 278.975 196.175 C 278.898 196.135 278.809 196.127 278.727 196.154 L 277.156 196.655 C 277.116 196.667 277.075 196.672 277.034 196.669 L 275.521 196.563 C 275.499 196.562 275.476 196.558 275.454 196.552 L 274.254 196.209 C 274.203 196.194 274.15 196.193 274.099 196.203 L 272.436 196.541 C 272.374 196.554 272.309 196.548 272.25 196.525 L 270.632 195.884 C 270.575 195.861 270.513 195.855 270.453 195.866 L 269.164 196.097 C 269.113 196.106 269.059 196.103 269.008 196.087 L 267.71 195.679 C 267.469 195.605 267.238 195.819 267.294 196.065 C 267.296 196.072 267.298 196.079 267.299 196.086 Z" opacity="0.1" style=""/>
  <path d="M 267.299 196.16 L 270.346 206.315 C 270.367 206.385 270.411 206.446 270.471 206.488 C 271.321 207.083 277.864 211.303 285.875 206.488 C 285.946 206.446 285.997 206.379 286.02 206.301 L 289.056 196.139 C 289.129 195.897 288.912 195.668 288.666 195.726 C 288.666 195.727 288.664 195.727 288.663 195.727 L 287.345 196.059 C 287.3 196.07 287.252 196.072 287.206 196.064 L 285.966 195.832 C 285.893 195.819 285.818 195.83 285.753 195.865 L 284.281 196.65 C 284.21 196.688 284.128 196.698 284.049 196.679 L 282.467 196.284 C 282.407 196.268 282.344 196.271 282.286 196.29 L 280.447 196.892 C 280.364 196.919 280.273 196.912 280.195 196.872 L 278.977 196.248 C 278.9 196.208 278.81 196.2 278.728 196.227 L 277.158 196.728 C 277.118 196.74 277.077 196.746 277.035 196.743 L 275.521 196.637 C 275.499 196.635 275.476 196.631 275.454 196.625 L 274.254 196.282 C 274.203 196.268 274.15 196.266 274.099 196.277 L 272.436 196.616 C 272.374 196.628 272.309 196.622 272.25 196.599 L 270.632 195.958 C 270.575 195.936 270.513 195.93 270.453 195.94 L 269.164 196.172 C 269.113 196.181 269.059 196.177 269.008 196.162 L 267.71 195.754 C 267.469 195.679 267.238 195.894 267.294 196.14 C 267.296 196.147 267.298 196.154 267.299 196.16 Z" fill="#4d4981" style=""/>
  <polygon points="270.641 192.54 270.323 192.429 270.144 192.143 270.939 191.148 271.257 191.26 271.436 191.546 270.641 192.54" fill="#fff" opacity="0.5" style=""/>
  <polygon points="285.724 194.225 285.405 194.113 285.227 193.828 286.02 192.833 286.339 192.944 286.518 193.23 285.724 194.225" fill="#fff" opacity="0.5" style=""/>
  <polygon points="279.1 188.797 278.781 188.687 278.603 188.401 279.397 187.406 279.716 187.517 279.893 187.803 279.1 188.797" fill="#fff" opacity="0.5" style=""/>
  <polygon points="280.888 192.454 280.58 192.59 280.253 192.504 280.153 191.235 280.462 191.099 280.788 191.185 280.888 192.454" fill="#fff" opacity="0.5" style=""/>
  <polygon points="275.697 189.34 275.484 189.601 275.154 189.672 274.491 188.586 274.704 188.324 275.034 188.254 275.697 189.34" fill="#fff" opacity="0.5" style=""/>
  <polygon points="275.323 192.408 275.11 192.67 274.78 192.74 274.116 191.654 274.329 191.393 274.659 191.322 275.323 192.408" fill="#fff" opacity="0.5" style=""/>
  <polygon points="284.476 192.707 284.232 192.94 283.895 192.967 283.376 191.805 283.621 191.573 283.957 191.545 284.476 192.707" fill="#fff" opacity="0.5" style=""/>
  <polygon points="282.808 188.726 282.891 188.398 283.161 188.196 284.221 188.9 284.138 189.227 283.869 189.43 282.808 188.726" fill="#fff" opacity="0.5" style=""/>
  <polygon points="271.54 189.21 271.221 189.099 271.042 188.812 271.836 187.818 272.155 187.929 272.334 188.215 271.54 189.21" fill="#fd6f8d" opacity="0.5" style=""/>
  <polygon points="275.55 187.34 275.472 187.012 275.618 186.708 276.883 186.842 276.961 187.171 276.815 187.475 275.55 187.34" fill="#fd6f8d" opacity="0.5" style=""/>
  <polygon points="281.682 185.474 281.745 185.143 282.002 184.925 283.102 185.565 283.039 185.896 282.782 186.115 281.682 185.474" fill="#fd6f8d" opacity="0.5" style=""/>
  <polygon points="279.23 183.803 279.559 183.728 279.862 183.876 279.715 185.141 279.386 185.215 279.083 185.067 279.23 183.803" fill="#fd6f8d" opacity="0.5" style=""/>
  <polygon points="276.972 193.778 276.894 193.449 277.04 193.145 278.305 193.279 278.383 193.608 278.238 193.912 276.972 193.778" fill="#fd6f8d" opacity="0.5" style=""/>
  <polygon points="272.294 194.018 272.095 193.745 272.109 193.409 273.328 193.04 273.528 193.312 273.512 193.649 272.294 194.018" fill="#fd6f8d" opacity="0.5" style=""/>
  <polygon points="285.392 191.763 285.115 191.571 285.021 191.246 286.054 190.504 286.331 190.696 286.425 191.02 285.392 191.763" fill="#fd6f8d" opacity="0.5" style=""/>
  <polygon points="276.634 192.025 276.358 191.833 276.263 191.509 277.296 190.766 277.573 190.958 277.667 191.282 276.634 192.025" fill="#fd6f8d" opacity="0.5" style=""/>
  <path d="M 270.455 195.866 L 269.167 196.097 C 269.115 196.106 269.061 196.103 269.011 196.087 L 268.989 196.08 L 271.334 206.947 L 268.989 196.08 L 267.712 195.679 C 267.471 195.604 267.24 195.818 267.295 196.064 C 267.296 196.07 267.298 196.077 267.3 196.083 L 270.347 206.238 C 270.368 206.308 270.412 206.369 270.472 206.412 C 270.738 206.598 271.565 207.141 272.821 207.649 L 270.549 195.857 C 270.518 195.856 270.486 195.858 270.455 195.866 Z" opacity="0.1" style=""/>
  <path d="M 288.664 195.654 L 287.345 195.983 C 287.3 195.995 287.252 195.997 287.206 195.988 L 285.966 195.757 C 285.928 195.75 285.889 195.75 285.851 195.757 L 283.683 207.531 L 285.85 195.757 C 285.816 195.763 285.783 195.775 285.753 195.791 L 284.281 196.576 C 284.214 196.612 284.136 196.623 284.062 196.608 L 282.517 207.97 C 283.398 207.677 284.252 207.31 285.069 206.871 L 287.433 195.961 L 285.069 206.868 C 285.336 206.725 285.606 206.573 285.878 206.41 C 285.948 206.368 285.999 206.301 286.022 206.223 L 289.059 196.061 C 289.127 195.819 288.908 195.593 288.664 195.654 Z" opacity="0.1" style=""/>
  <path d="M 284.048 196.604 L 282.465 196.209 C 282.435 196.201 282.403 196.198 282.372 196.2 L 281.164 208.347 C 281.608 208.246 282.059 208.121 282.519 207.97 L 284.064 196.608 Z" fill="#4d4981" style=""/>
  <g opacity="0.5" transform="matrix(0.057804, 0, 0, 0.057804, 253.437057, 167.638824)" style="">
    <rect x="447.32" y="548.5" width="0.65" height="192.29" transform="translate(-284.25 51.59) rotate(-12.18)" fill="#fff"/>
    <rect x="499.39" y="557.95" width="0.65" height="201.19" transform="translate(-247.01 20.51) rotate(-8.19)" fill="#fff"/>
    <rect x="473.66" y="544.79" width="0.65" height="207.96" transform="translate(-272.5 44.02) rotate(-10.9)" fill="#fff"/>
    <rect x="526.13" y="552.08" width="0.65" height="212.05" transform="translate(-214.22 -8.45) rotate(-5.05)" fill="#fff"/>
    <rect x="555.12" y="559.81" width="0.65" height="207.61" transform="translate(-177.58 -40.75) rotate(-1.68)" fill="#fff"/>
    <rect x="586.67" y="554.95" width="0.65" height="213.91" transform="translate(-162.63 -53.52) rotate(-0.37)" fill="#fff"/>
    <rect x="517.7" y="665.22" width="202.95" height="0.65" transform="translate(-229.51 1199.57) rotate(-87.65)" fill="#fff"/>
    <rect x="542.25" y="657.79" width="212.28" height="0.65" transform="translate(-229.42 1180.31) rotate(-84.28)" fill="#fff"/>
    <rect x="574.78" y="656.84" width="200.2" height="0.65" transform="matrix(0.13, -0.99, 0.99, 0.13, -225.62, 1179.91)" fill="#fff"/>
    <rect x="596.61" y="646.43" width="207.48" height="0.65" transform="translate(-221.08 1160.76) rotate(-79.55)" fill="#fff"/>
    <rect x="629.42" y="642.64" width="193.13" height="0.65" transform="translate(-214.09 1159.48) rotate(-77.81)" fill="#fff"/>
  </g>
  <path d="M 266.01 183.424 C 266.01 183.424 265.541 183.268 265.541 182.878" opacity="0.1" style=""/>
  <g opacity="0.1" transform="matrix(0.057804, 0, 0, 0.057804, 253.437057, 167.638824)" style="">
    <path d="M970.19,511l-.16.33c-.05-.33-.1-.68-.13-1A7.11,7.11,0,0,0,970.19,511Z" transform="translate(-158.33 -57.35)"/>
    <path d="M927.91,413.75a9.47,9.47,0,0,0-1.45-3.09l66.24-10.29s-.39,1.25-1.06,3.48Z" transform="translate(-158.33 -57.35)"/>
  </g>
  <ellipse cx="937.28" cy="288.96" rx="0.842" ry="0.462" transform="matrix(0.544639, -0.838671, 0.838671, 0.544639, -454.359316, 809.713395)" fill="#e6e6e6" style=""/>
  <path d="M 291.593 195.007 C 291.661 195.007 291.702 194.935 291.669 194.877 C 291.653 194.85 291.624 194.834 291.593 194.834 C 291.527 194.834 291.485 194.906 291.519 194.964 C 291.534 194.991 291.563 195.007 291.593 195.007 Z" style=""/>
</svg>