<?xml version="1.0" encoding="utf-8"?>
<svg viewBox="0 0 500 500" xmlns="http://www.w3.org/2000/svg">
  <title>healthy_options</title>
  <path d="M 153.493 328.725 C 151.801 328.725 150.094 328.698 148.417 328.646 L 148.455 327.428 C 150.862 327.503 153.32 327.524 155.738 327.49 L 155.755 328.709 C 155.002 328.72 154.248 328.725 153.493 328.725 Z M 163.089 328.442 L 163.018 327.226 C 165.429 327.083 167.871 326.883 170.276 326.632 L 170.404 327.843 C 167.98 328.097 165.519 328.299 163.089 328.442 Z M 141.089 328.252 C 138.658 328.066 136.201 327.822 133.786 327.526 L 133.935 326.316 C 136.331 326.61 138.769 326.852 141.182 327.037 Z M 177.682 326.912 L 177.499 325.708 C 179.895 325.344 182.309 324.921 184.673 324.452 L 184.911 325.647 C 182.528 326.12 180.096 326.546 177.682 326.912 Z M 126.525 326.466 C 124.123 326.059 121.698 325.591 119.319 325.074 L 119.577 323.883 C 121.939 324.396 124.344 324.86 126.728 325.264 Z M 192.074 324.052 L 191.782 322.868 C 194.133 322.287 196.498 321.644 198.81 320.958 L 199.157 322.127 C 196.826 322.818 194.444 323.466 192.074 324.052 Z M 112.184 323.353 C 109.829 322.726 107.457 322.037 105.137 321.303 L 105.504 320.141 C 107.807 320.869 110.16 321.553 112.498 322.174 Z M 206.142 319.878 L 205.743 318.726 C 208.025 317.934 210.32 317.075 212.566 316.177 L 213.018 317.309 C 210.756 318.215 208.443 319.079 206.143 319.878 Z M 98.174 318.923 C 95.886 318.082 93.583 317.175 91.331 316.226 L 91.804 315.102 C 94.039 316.043 96.324 316.944 98.595 317.779 Z M 219.752 314.433 L 219.247 313.323 C 221.439 312.327 223.642 311.264 225.795 310.164 L 226.349 311.249 C 224.18 312.358 221.961 313.429 219.752 314.433 Z M 232.794 307.765 L 232.191 306.707 C 234.292 305.508 236.39 304.247 238.425 302.96 L 239.077 303.99 C 237.026 305.287 234.913 306.558 232.794 307.765 Z M 245.181 299.929 L 244.484 298.93 C 246.463 297.547 248.437 296.099 250.354 294.627 L 251.096 295.593 C 249.166 297.077 247.176 298.536 245.181 299.929 Z M 59.393 298.212 C 57.425 296.783 55.46 295.286 53.551 293.762 L 54.311 292.81 C 56.206 294.322 58.156 295.808 60.108 297.225 Z M 256.808 290.993 L 256.023 290.06 C 257.868 288.504 259.703 286.882 261.479 285.239 L 262.307 286.135 C 260.517 287.79 258.667 289.424 256.808 290.993 Z M 47.918 289.051 C 46.086 287.446 44.266 285.777 42.508 284.09 L 43.352 283.21 C 45.097 284.885 46.903 286.542 48.722 288.134 Z M 267.58 281.029 L 266.712 280.174 C 268.412 278.45 270.095 276.667 271.711 274.874 L 272.617 275.689 C 270.988 277.497 269.294 279.293 267.58 281.029 Z M 37.33 278.889 C 35.649 277.121 33.989 275.294 32.396 273.458 L 33.316 272.659 C 34.898 274.482 36.545 276.294 38.213 278.048 Z M 277.405 270.124 L 276.463 269.351 C 278 267.481 279.512 265.552 280.96 263.616 L 281.936 264.346 C 280.477 266.297 278.953 268.241 277.405 270.124 Z M 27.714 267.81 C 26.204 265.902 24.718 263.933 23.296 261.957 L 24.285 261.245 C 25.696 263.206 27.171 265.161 28.67 267.054 Z M 286.199 258.365 L 285.191 257.68 C 286.55 255.679 287.882 253.619 289.148 251.556 L 290.187 252.194 C 288.91 254.272 287.569 256.349 286.199 258.365 Z M 19.15 255.909 C 17.822 253.873 16.522 251.778 15.286 249.68 L 16.336 249.062 C 17.563 251.143 18.852 253.223 20.171 255.242 Z M 293.888 245.846 L 292.821 245.257 C 293.991 243.139 295.129 240.964 296.201 238.792 L 297.294 239.333 C 296.214 241.521 295.067 243.712 293.888 245.846 Z M 300.398 232.668 L 299.281 232.179 C 300.253 229.961 301.185 227.689 302.054 225.427 L 303.192 225.864 C 302.316 228.143 301.376 230.432 300.398 232.668 Z M 5.464 230.038 C 4.529 227.795 3.634 225.5 2.804 223.217 L 3.95 222.801 C 4.773 225.067 5.661 227.344 6.588 229.569 Z M 305.669 218.936 L 304.512 218.552 C 305.273 216.26 305.991 213.917 306.645 211.588 L 307.819 211.918 C 307.159 214.265 306.435 216.626 305.669 218.936 Z M 0.455 216.264 C -0.27 213.941 -0.951 211.568 -1.57 209.21 L -0.39 208.9 C 0.223 211.241 0.9 213.596 1.62 215.901 Z M 309.642 204.809 L 308.455 204.533 C 309 202.184 309.499 199.784 309.938 197.403 L 311.136 197.623 C 310.695 200.024 310.192 202.44 309.642 204.809 Z M -3.267 202.07 C -3.776 199.689 -4.236 197.263 -4.634 194.86 L -3.432 194.66 C -3.036 197.046 -2.58 199.453 -2.075 201.815 Z M 312.298 190.377 L 311.09 190.212 C 311.418 187.825 311.695 185.39 311.914 182.976 L 313.128 183.086 C 312.907 185.519 312.628 187.972 312.298 190.377 Z M -5.669 187.594 C -5.957 185.181 -6.193 182.724 -6.371 180.29 L -5.155 180.201 C -4.979 182.617 -4.744 185.055 -4.459 187.451 Z M 313.624 175.765 L 312.406 175.71 C 312.515 173.295 312.57 170.845 312.57 168.429 L 313.789 168.429 C 313.789 170.863 313.733 173.332 313.624 175.765 Z M -6.741 172.96 C -6.782 171.465 -6.804 169.94 -6.804 168.429 C -6.804 167.491 -6.796 166.555 -6.78 165.62 L -5.561 165.641 C -5.577 166.569 -5.585 167.498 -5.585 168.429 C -5.585 169.93 -5.563 171.443 -5.522 172.927 Z M -5.271 158.364 L -6.488 158.288 C -6.336 155.852 -6.126 153.392 -5.864 150.976 L -4.652 151.107 C -4.912 153.506 -5.12 155.947 -5.271 158.364 Z M 311.783 150.927 C 311.539 148.524 311.205 147.353 310.851 144.96 L 312.057 144.782 C 312.413 147.192 312.718 149.033 312.964 151.455 Z M -3.703 143.887 L -4.908 143.701 C -4.534 141.289 -4.1 138.859 -3.618 136.476 L -2.424 136.717 C -2.902 139.082 -3.333 141.494 -3.703 143.887 Z M 309.621 137.782 C 309.156 135.405 308.631 133.011 308.061 130.668 L 309.246 130.38 C 309.82 132.741 310.348 135.153 310.817 137.548 Z M -0.816 129.615 L -1.998 129.318 C -1.407 126.957 -0.751 124.577 -0.05 122.242 L 1.117 122.593 C 0.422 124.909 -0.228 127.272 -0.816 129.615 Z M 306.176 123.633 C 305.496 121.312 304.753 118.977 303.968 116.693 L 305.12 116.297 C 305.912 118.599 306.66 120.952 307.345 123.291 Z M 3.38 115.649 L 2.23 115.245 C 3.04 112.94 3.915 110.625 4.83 108.363 L 5.96 108.82 C 5.052 111.065 4.184 113.363 3.38 115.649 Z M 301.442 109.862 C 300.553 107.619 299.6 105.367 298.611 103.17 L 299.723 102.67 C 300.72 104.883 301.68 107.152 302.575 109.412 Z M 8.851 102.12 L 7.744 101.611 C 8.762 99.394 9.845 97.17 10.964 95.002 L 12.047 95.561 C 10.937 97.713 9.862 99.919 8.851 102.12 Z M 295.476 96.613 C 294.385 94.46 293.229 92.304 292.04 90.204 L 293.101 89.603 C 294.299 91.72 295.463 93.893 296.563 96.062 Z M 15.542 89.159 L 14.485 88.551 C 15.701 86.439 16.984 84.325 18.297 82.269 L 19.324 82.925 C 18.021 84.966 16.748 87.064 15.542 89.159 Z M 288.315 83.956 C 287.027 81.906 285.678 79.864 284.306 77.885 L 285.307 77.19 C 286.69 79.184 288.049 81.242 289.347 83.309 Z M 23.388 76.872 L 22.392 76.17 C 23.797 74.177 25.266 72.19 26.759 70.265 L 27.722 71.013 C 26.241 72.923 24.782 74.895 23.388 76.872 Z M 280.023 72.001 C 278.554 70.077 277.024 68.165 275.474 66.317 L 276.409 65.533 C 277.97 67.396 279.511 69.323 280.992 71.261 Z M 32.319 65.358 L 31.391 64.568 C 32.968 62.716 34.611 60.872 36.276 59.088 L 37.167 59.92 C 35.515 61.69 33.884 63.52 32.319 65.358 Z M 270.673 60.843 C 269.035 59.061 267.337 57.294 265.625 55.593 L 266.484 54.728 C 268.209 56.443 269.92 58.223 271.57 60.018 Z M 42.256 54.709 L 41.404 53.838 C 43.147 52.132 44.951 50.447 46.765 48.827 L 47.576 49.737 C 45.777 51.344 43.987 53.017 42.256 54.709 Z M 260.343 50.577 C 258.549 48.949 256.696 47.344 254.837 45.806 L 255.614 44.867 C 257.487 46.417 259.354 48.034 261.162 49.674 Z M 53.117 45.011 L 52.347 44.066 C 54.232 42.531 56.181 41.017 58.138 39.565 L 58.864 40.544 C 56.921 41.985 54.988 43.487 53.117 45.011 Z M 64.808 36.346 L 64.128 35.335 C 66.145 33.977 68.222 32.648 70.302 31.382 L 70.935 32.424 C 68.872 33.68 66.811 34.999 64.808 36.346 Z M 77.234 28.787 L 76.649 27.717 C 78.784 26.55 80.972 25.417 83.154 24.349 L 83.69 25.444 C 81.525 26.503 79.353 27.628 77.234 28.787 Z M 224.347 25.963 C 222.178 24.883 219.957 23.839 217.743 22.86 L 218.236 21.746 C 220.466 22.731 222.705 23.783 224.891 24.872 Z M 90.29 22.401 L 89.806 21.282 C 92.037 20.316 94.319 19.388 96.588 18.526 L 97.021 19.666 C 94.769 20.521 92.505 21.442 90.29 22.401 Z M 211.001 20.064 C 208.744 19.189 206.434 18.354 204.135 17.582 L 204.523 16.427 C 206.84 17.204 209.167 18.045 211.442 18.928 Z M 103.887 17.238 L 103.508 16.08 C 105.824 15.32 108.188 14.605 110.532 13.955 L 110.858 15.129 C 108.532 15.774 106.186 16.484 103.887 17.238 Z M 197.179 15.426 C 194.853 14.763 192.482 14.145 190.13 13.591 L 190.41 12.405 C 192.781 12.964 195.17 13.585 197.513 14.253 Z M 117.919 13.344 L 117.648 12.155 C 120.022 11.613 122.442 11.119 124.838 10.686 L 125.054 11.886 C 122.676 12.315 120.276 12.806 117.919 13.344 Z M 183.005 12.084 C 180.632 11.638 178.214 11.242 175.819 10.906 L 175.988 9.699 C 178.401 10.038 180.838 10.437 183.23 10.886 Z M 132.249 10.758 L 132.089 9.549 C 134.502 9.227 136.955 8.957 139.382 8.745 L 139.488 9.959 C 137.08 10.17 134.645 10.438 132.249 10.758 Z M 168.585 10.058 C 166.184 9.832 163.74 9.658 161.32 9.541 L 161.38 8.323 C 163.817 8.441 166.28 8.617 168.7 8.845 Z M 146.757 9.492 L 146.705 8.274 C 148.946 8.181 151.229 8.133 153.493 8.133 L 154.044 8.133 L 154.041 9.352 L 153.493 9.352 C 151.246 9.352 148.979 9.399 146.757 9.492 Z" fill="#3f3d56" style=""/>
  <path d="M 349.614 65.55 L 349.614 460.623 C 349.604 470.422 341.659 478.362 331.859 478.365 L 171.471 478.365 C 161.664 478.382 153.707 470.431 153.717 460.623 L 153.717 65.55 C 153.716 55.744 161.665 47.795 171.471 47.796 L 195.473 47.796 L 195.473 50.874 C 195.472 58.947 202.016 65.493 210.089 65.496 L 291.663 65.496 C 294.784 65.502 297.823 64.501 300.33 62.643 C 300.837 62.274 301.318 61.871 301.769 61.436 C 304.654 58.681 306.284 54.864 306.279 50.874 L 306.279 47.796 L 331.859 47.796 C 341.666 47.793 349.617 55.744 349.614 65.55 Z" fill="#3f3d56" style=""/>
  <rect x="177.166" y="190.216" width="148.999" height="113.365" fill="#ff718e" style=""/>
  <path d="M 98.704 171.114 C 111.97 171.399 122.524 181.013 122.524 181.013 C 122.524 181.013 111.568 190.165 98.302 189.881 C 85.036 189.596 74.483 179.982 74.483 179.982 C 74.483 179.982 85.438 170.83 98.704 171.114 Z" fill="#ff718e" style=""/>
  <path d="M 32.009 125.831 C 43.995 131.525 57.738 127.664 57.738 127.664 C 57.738 127.664 52.05 114.571 40.064 108.877 C 28.079 103.182 14.335 107.044 14.335 107.044 C 14.335 107.044 20.024 120.136 32.009 125.831 Z" fill="#ff718e" style=""/>
  <path d="M 33.228 120.172 C 46.442 118.964 58.008 127.332 58.008 127.332 C 58.008 127.332 48.15 137.657 34.936 138.864 C 21.722 140.072 10.156 131.705 10.156 131.705 C 10.156 131.705 20.013 121.38 33.228 120.172 Z" fill="#3f3d56" style=""/>
  <path d="M 81.667 122.46 C 80.4 135.669 88.715 147.272 88.715 147.272 C 88.715 147.272 99.085 137.46 100.351 124.252 C 101.618 111.043 93.302 99.44 93.302 99.44 C 93.302 99.44 82.933 109.252 81.667 122.46 Z" fill="#3f3d56" style=""/>
  <path d="M 143.898 203.467 C 136.967 214.783 139.352 228.858 139.352 228.858 C 139.352 228.858 152.973 224.587 159.905 213.272 C 166.835 201.956 164.451 187.882 164.451 187.882 C 164.451 187.882 150.829 192.152 143.898 203.467 Z" fill="#3f3d56" style=""/>
  <path d="M 123.791 326.493 L 124.801 325.81 C 121.241 320.643 119.297 314.535 119.216 308.261 C 119.244 299.084 123.752 290.595 128.112 282.386 C 128.921 280.862 129.727 279.344 130.503 277.825 C 133.76 271.636 136.355 265.12 138.246 258.387 C 145.009 233.258 138.35 203.61 120.438 179.079 C 106.227 159.619 85.043 142.602 55.677 127.055 L 55.106 128.133 C 84.306 143.59 105.354 160.49 119.453 179.798 C 137.151 204.034 143.736 233.295 137.069 258.07 C 135.2 264.722 132.635 271.158 129.418 277.271 C 128.645 278.783 127.841 280.296 127.035 281.814 C 122.606 290.154 118.026 298.778 117.997 308.258 C 118.078 314.776 120.094 321.123 123.791 326.493 Z" fill="#3f3d56" style=""/>
  <polygon points="160.806 305.053 88.113 298.995 88.113 192.378 160.806 188.744 160.806 305.053" fill="#ff718e" style=""/>
  <polygon points="342.525 305.053 415.218 298.995 415.218 192.378 342.525 188.744 342.525 305.053" fill="#ff718e" style=""/>
  <path d="M 276.934 232.766 C 272.512 228.947 266.232 228.149 260.995 230.74 C 258.771 231.816 256.378 232.501 253.921 232.764 C 253.859 227.443 254.837 222.16 256.797 217.213 L 257.118 216.383 L 252.846 216.383 L 252.723 216.831 C 252.247 218.581 251.872 220.356 251.6 222.149 C 251.369 221.372 251.07 220.617 250.706 219.893 C 247.709 213.951 240.785 211.521 240.492 211.42 L 239.901 211.218 L 239.713 211.813 C 239.619 212.109 237.457 219.121 240.454 225.063 C 242.599 229.317 246.758 231.77 249.054 232.858 C 246.147 232.671 243.306 231.911 240.693 230.621 C 237.37 228.909 233.359 229.248 230.37 231.493 C 222.393 237.555 217.817 246.441 217.817 255.872 C 217.817 268.262 225.841 279.609 238.258 284.778 C 239.379 285.243 240.58 285.482 241.793 285.481 C 243.477 285.481 245.13 285.027 246.578 284.168 C 250.496 281.889 255.333 281.879 259.26 284.142 C 261.79 285.634 264.873 285.851 267.586 284.728 C 279.932 279.539 287.909 268.212 287.909 255.872 C 287.909 247.041 284.01 238.834 276.934 232.766 Z M 253.778 217.601 L 255.347 217.601 C 253.583 222.327 252.683 227.332 252.692 232.377 L 252.412 232.377 C 252.035 227.41 252.497 222.415 253.778 217.601 Z M 241.542 224.514 C 239.267 220.003 240.265 214.627 240.706 212.813 C 242.427 213.535 247.338 215.922 249.617 220.441 C 251.892 224.951 250.895 230.327 250.454 232.142 C 248.732 231.417 243.816 229.024 241.542 224.514 Z M 267.113 283.605 C 264.755 284.58 262.075 284.39 259.878 283.091 C 255.568 280.603 250.255 280.614 245.955 283.121 C 243.763 284.424 241.086 284.622 238.727 283.654 C 226.765 278.674 219.036 267.769 219.036 255.872 C 219.036 246.825 223.436 238.293 231.107 232.464 C 232.578 231.352 234.374 230.752 236.218 230.757 C 237.581 230.756 238.923 231.081 240.134 231.705 C 246.894 234.931 254.74 234.977 261.538 231.832 C 266.336 229.458 272.089 230.191 276.139 233.692 C 282.943 239.525 286.69 247.402 286.69 255.872 C 286.69 267.72 279.005 278.605 267.113 283.605 Z" fill="#fff" style=""/>
  <path d="M 124.26 221.247 L 124.26 219.816 L 124.829 219.816 L 124.829 215.359 C 124.833 214.685 124.461 214.065 123.865 213.751 C 121.35 212.439 118.646 212.44 115.83 213.757 C 115.196 214.059 114.792 214.699 114.792 215.402 L 114.792 219.816 L 115.362 219.816 L 115.362 221.112 C 111.059 222.318 108.091 226.248 108.109 230.716 L 108.109 240.362 L 109.192 240.723 L 108.109 241.445 L 108.109 244.344 L 109.192 244.706 L 108.109 245.428 L 108.109 248.327 L 109.192 248.687 L 108.109 249.41 L 108.109 271.487 C 108.112 275.072 111.018 277.978 114.603 277.983 L 124.179 277.983 C 127.756 277.978 130.656 275.08 130.66 271.502 L 130.66 249.41 L 129.576 248.687 L 130.66 248.327 L 130.66 245.428 L 129.576 244.706 L 130.66 244.344 L 130.66 241.445 L 129.576 240.723 L 130.66 240.362 L 130.66 230.218 C 130.645 226.173 128.08 222.578 124.26 221.247 Z M 116.346 214.862 C 118.836 213.699 121.111 213.689 123.301 214.833 C 123.493 214.937 123.612 215.14 123.61 215.359 L 123.61 217.744 L 116.011 217.744 L 116.011 215.402 C 116.01 215.172 116.14 214.962 116.346 214.862 Z M 129.441 239.483 L 126.827 240.355 L 129.441 242.098 L 129.441 243.466 L 126.827 244.337 L 129.441 246.08 L 129.441 247.448 L 126.827 248.319 L 129.441 250.062 L 129.441 271.502 C 129.437 274.407 127.083 276.76 124.179 276.764 L 114.603 276.764 C 111.691 276.76 109.331 274.399 109.328 271.487 L 109.328 250.062 L 111.942 248.319 L 109.328 247.448 L 109.328 246.08 L 111.942 244.337 L 109.328 243.465 L 109.328 242.098 L 111.942 240.355 L 109.328 239.483 L 109.328 230.717 C 109.312 226.634 112.129 223.087 116.108 222.178 L 116.581 222.069 L 116.581 219.816 L 123.041 219.816 L 123.041 222.151 L 123.481 222.279 C 127.004 223.316 129.428 226.545 129.441 230.218 Z" fill="#fff" style=""/>
  <path d="M 410.76 237.94 L 407.691 237.326 L 408.414 235.881 L 407.006 235.6 L 407.249 234.136 L 405.712 233.879 L 405.712 232.491 L 404.465 232.135 L 405.649 230.656 L 403.595 230.656 L 404.024 229.584 L 402.505 229.331 L 403.021 227.525 L 401.378 227.525 L 401.378 225.839 L 400.768 225.839 C 398.848 225.839 397.777 228.12 397.425 229.033 C 386.825 230.882 356.046 252.201 352.533 254.653 C 351.073 254.18 348.909 255.289 348.457 255.536 L 347.742 255.926 L 348.774 256.958 L 348.466 257.88 L 350.36 258.59 L 349.945 259.627 L 351.138 260.621 L 350.066 261.426 L 351.679 262.394 L 351.396 263.808 L 353.197 264.065 L 353.197 265.481 L 354.243 265.69 L 353.721 267.518 L 354.882 267.518 L 354.882 268.963 L 356.016 268.963 L 356.53 270.502 L 357.057 270.396 C 358.283 270.151 359.333 268.454 359.743 267.702 C 369.952 265.88 401.472 243.705 404.54 241.533 C 408.121 241.962 409.437 241.005 409.578 240.893 L 410.161 240.426 L 408.769 239.267 Z M 404.461 240.294 L 404.224 240.262 L 404.028 240.401 C 403.68 240.649 369.113 265.138 359.259 266.545 L 358.943 266.591 L 358.8 266.876 C 358.422 267.647 357.912 268.344 357.293 268.938 L 356.894 267.744 L 356.101 267.744 L 356.101 266.299 L 355.337 266.299 L 355.778 264.755 L 354.416 264.482 L 354.416 263.008 L 352.845 262.784 L 353.043 261.79 L 352.247 261.312 L 353.102 260.671 L 351.406 259.258 L 351.954 257.886 L 349.995 257.151 L 350.169 256.629 L 349.79 256.249 C 350.706 255.869 351.813 255.586 352.289 255.871 L 352.628 256.074 L 352.952 255.847 C 353.298 255.604 387.63 231.592 397.96 230.183 L 398.346 230.131 L 398.461 229.758 C 398.638 229.182 399.27 227.727 400.159 227.228 L 400.159 228.744 L 401.406 228.744 L 400.958 230.309 L 402.329 230.538 L 401.794 231.875 L 403.112 231.875 L 402.369 232.804 L 404.493 233.41 L 404.493 234.912 L 405.847 235.138 L 405.609 236.564 L 406.61 236.763 L 405.887 238.209 L 407.635 238.558 L 406.735 239.158 L 408.029 240.237 C 406.853 240.476 405.644 240.495 404.461 240.294 Z" fill="#fff" style=""/>
  <circle cx="251.665" cy="337.713" r="17.675" fill="#ff718e" style=""/>
  <polygon points="262.794 335.967 253.411 335.967 253.411 326.584 249.92 326.584 249.92 335.967 240.537 335.967 240.537 339.458 249.92 339.458 249.92 348.841 253.411 348.841 253.411 339.458 262.794 339.458 262.794 335.967" fill="#fff" style=""/>
  <polygon points="307.412 338.322 298.27 334.056 298.27 336.494 276.938 336.494 276.938 340.151 298.27 340.151 298.27 342.589 307.412 338.322" fill="#fff" style=""/>
  <polygon points="195.919 338.322 205.061 334.056 205.061 336.494 226.393 336.494 226.393 340.151 205.061 340.151 205.061 342.589 195.919 338.322" fill="#fff" style=""/>
  <rect x="193.154" y="105.497" width="117.022" height="1.219" fill="#fff" style=""/>
  <rect x="193.438" y="438.279" width="117.022" height="1.219" fill="#fff" style=""/>
</svg>